<?xml version="1.0" encoding="UTF-8"?>
<svg xmlns="http://www.w3.org/2000/svg" xmlns:xlink="http://www.w3.org/1999/xlink" viewBox="0 0 329.26 100.43">
  <defs>
    <style>
      .cls-1 {
        fill: url(#linear-gradient-2);
      }

      .cls-2, .cls-3 {
        fill: #97664f;
      }

      .cls-4 {
        isolation: isolate;
      }

      .cls-5 {
        fill: #3b3936;
      }

      .cls-6 {
        fill: url(#linear-gradient-3);
      }

      .cls-7 {
        fill: url(#linear-gradient);
      }

      .cls-8 {
        fill: url(#linear-gradient-4);
      }

      .cls-3 {
        font-family: WorkSans-Medium, 'Work Sans';
        font-size: 1.66px;
        font-weight: 500;
      }

      .cls-9 {
        mix-blend-mode: multiply;
      }
    </style>
    <linearGradient id="linear-gradient" x1="302.4" y1="90.69" x2="293.33" y2="90.69" gradientUnits="userSpaceOnUse">
      <stop offset="0" stop-color="#262a2e" stop-opacity=".07"/>
      <stop offset=".6" stop-color="#262a2e" stop-opacity=".29"/>
      <stop offset="1" stop-color="#262a2e" stop-opacity=".5"/>
    </linearGradient>
    <linearGradient id="linear-gradient-2" x1="293.36" y1="89.54" x2="297.88" y2="94.06" gradientUnits="userSpaceOnUse">
      <stop offset="0" stop-color="#262a2e" stop-opacity=".21"/>
      <stop offset=".81" stop-color="#262a2e" stop-opacity=".43"/>
      <stop offset="1" stop-color="#262a2e" stop-opacity=".5"/>
    </linearGradient>
    <linearGradient id="linear-gradient-3" x1="299.57" y1="89.57" x2="299.57" y2="95.2" xlink:href="#linear-gradient"/>
    <linearGradient id="linear-gradient-4" x1="294.81" y1="85.33" x2="300.99" y2="96.02" xlink:href="#linear-gradient-2"/>
  </defs>
  <g class="cls-4">
    <g id="Layer_1" data-name="Layer 1">
      <g class="cls-9">
        <path class="cls-7" d="m295.95,93.05c-.23.68-.35,1.4-.35,2.15h-2.27c0-1.17.23-2.29.64-3.32.79.15,1.49.57,1.98,1.17Zm1.91-5.66c-.73.42-1.4.94-1.98,1.54-.28.29-.54.59-.78.91.74.24,1.41.63,1.98,1.14.24-.29.5-.57.78-.82.58-.52,1.25-.94,1.98-1.23.79-.32,1.65-.5,2.56-.5v-2.25c-1.65,0-3.2.44-4.54,1.21Z"/>
        <path class="cls-1" d="m297.87,91.82c-.71.94-1.13,2.11-1.13,3.38,0-.82-.29-1.57-.78-2.15-.49-.59-1.19-1.02-1.98-1.17-.21-.04-.42-.06-.64-.06v-2.25c.62,0,1.22.1,1.78.28.74.24,1.41.63,1.98,1.14.29.25.55.53.78.84Z"/>
        <path class="cls-6" d="m302.4,89.57v2.25c-.22,0-.43.02-.64.06-.29-.73-.68-1.41-1.14-2.03.56-.18,1.16-.28,1.78-.28Zm-3.76,1.42c-.29.25-.55.53-.78.84-.71.94-1.13,2.11-1.13,3.38h2.27c0-.82.29-1.57.78-2.15-.26-.76-.64-1.45-1.14-2.06Z"/>
        <path class="cls-8" d="m302.4,95.2h-2.27c0-.75-.12-1.48-.35-2.15-.26-.76-.64-1.45-1.14-2.06-.24-.29-.5-.57-.78-.82.58-.52,1.25-.94,1.98-1.23.28.29.54.59.78.91.46.62.85,1.3,1.14,2.03.41,1.03.64,2.15.64,3.32Zm-9.07-9.02v2.25c.9,0,1.77.18,2.56.5.58-.6,1.25-1.12,1.98-1.54-1.34-.77-2.88-1.21-4.54-1.21Z"/>
      </g>
      <g>
        <path class="cls-5" d="m249.78,65.55h1.52l6.55,14.47h-1.74l-1.68-3.79h-7.82l-1.7,3.79h-1.66l6.55-14.47h0Zm4,9.22l-3.27-7.33-3.29,7.33h6.55Z"/>
        <path class="cls-5" d="m260.68,65.65h1.52l9.05,11.51v-11.51h1.58v14.37h-1.3l-9.28-11.78v11.78h-1.58v-14.37h0Z"/>
        <path class="cls-5" d="m276.25,72.88v-.04c0-3.94,2.89-7.43,7.2-7.43,2.42,0,3.92.7,5.36,1.91l-1.05,1.23c-1.11-.96-2.34-1.64-4.37-1.64-3.18,0-5.46,2.69-5.46,5.89v.04c0,3.43,2.2,5.97,5.68,5.97,1.64,0,3.16-.63,4.15-1.44v-3.57h-4.37v-1.46h5.93v5.72c-1.34,1.19-3.35,2.2-5.76,2.2-4.52,0-7.31-3.29-7.31-7.39h0Z"/>
        <path class="cls-5" d="m292.97,65.65h10.39v1.48h-8.76v4.9h7.84v1.48h-7.84v5.03h8.86v1.48h-10.49v-14.37h0Z"/>
        <path class="cls-5" d="m306.72,65.65h1.62v12.87h8.09v1.5h-9.71v-14.37h0Z"/>
        <path class="cls-5" d="m318.48,77.93l1.01-1.19c1.5,1.36,2.93,2.03,4.92,2.03s3.2-1.03,3.2-2.44v-.04c0-1.34-.72-2.09-3.73-2.73-3.31-.72-4.82-1.78-4.82-4.15v-.04c0-2.26,1.99-3.92,4.72-3.92,2.09,0,3.59.59,5.05,1.76l-.94,1.25c-1.34-1.09-2.67-1.56-4.15-1.56-1.87,0-3.06,1.03-3.06,2.32v.04c0,1.36.74,2.11,3.9,2.79,3.2.7,4.68,1.87,4.68,4.06v.04c0,2.46-2.05,4.06-4.9,4.06-2.28,0-4.15-.76-5.87-2.3h0Z"/>
      </g>
      <g>
        <path class="cls-2" d="m243.26,84.85h3.41l3.77,6.07,3.77-6.07h3.41v14.37h-3.14v-9.38l-4.04,6.14h-.08l-4-6.07v9.32h-3.1v-14.37h0Z"/>
        <path class="cls-2" d="m261.06,84.85h10.83v2.81h-7.69v2.91h6.77v2.81h-6.77v3.02h7.8v2.81h-10.94v-14.37h0Z"/>
        <path class="cls-2" d="m279.74,84.75h2.91l6.16,14.47h-3.31l-1.32-3.22h-6.07l-1.32,3.22h-3.22l6.16-14.47Zm3.33,8.46l-1.91-4.66-1.91,4.66h3.82Z"/>
      </g>
      <g>
        <path class="cls-5" d="m0,72.02v-.16C0,55.85,12.33,43.29,28.97,43.29c11.22,0,18.44,4.71,23.31,11.46l-11.46,8.87c-3.14-3.93-6.75-6.44-12.01-6.44-7.69,0-13.11,6.52-13.11,14.52v.16c0,8.24,5.42,14.68,13.11,14.68,5.73,0,9.11-2.67,12.4-6.67l11.46,8.16c-5.18,7.14-12.16,12.4-24.33,12.4-15.7,0-28.34-12.01-28.34-28.42"/>
        <path class="cls-5" d="m128.02,44.81h25.98c8.4,0,14.21,2.18,17.89,5.91,3.22,3.11,4.87,7.3,4.87,12.67v.16c0,8.32-4.47,13.84-11.3,16.71l13.77,18.97h-17.58l-11.73-16.48h-6.67v16.48h-15.23v-54.42h0Zm25.28,26.12c5.18,0,8.16-2.49,8.16-6.45v-.16c0-4.27-3.14-6.45-8.24-6.45h-9.97v13.06h10.05,0Z"/>
        <polygon class="cls-5" points="185.63 44.81 230.44 44.81 230.44 57.63 200.71 57.63 200.71 65.87 227.3 65.87 227.3 77.77 200.71 77.77 200.71 86.39 230.44 86.39 230.44 99.22 185.63 99.22 185.63 44.81"/>
      </g>
      <g>
        <path class="cls-2" d="m89.62,81.15c-18.28,0-33.14-14.87-33.14-33.14s14.87-33.14,33.14-33.14,33.14,14.87,33.14,33.14-14.87,33.14-33.14,33.14m0-50.76c-9.72,0-17.62,7.91-17.62,17.62s7.91,17.62,17.62,17.62,17.62-7.91,17.62-17.62-7.91-17.62-17.62-17.62"/>
        <path class="cls-2" d="m105.62,6.4h-32c-1.77,0-3.2-1.43-3.2-3.2s1.43-3.2,3.2-3.2h32c1.77,0,3.2,1.44,3.2,3.2s-1.43,3.2-3.2,3.2"/>
        <path class="cls-2" d="m92.82,48.01c0,1.77-1.43,3.2-3.2,3.2s-3.2-1.43-3.2-3.2,1.43-3.2,3.2-3.2,3.2,1.43,3.2,3.2"/>
      </g>
      <g>
        <path class="cls-2" d="m293.37,99.68v-3.61h1.35c.97,0,1.45.39,1.45,1.2s-.48,1.23-1.44,1.23h-.42v1.17h-.94Zm1.35-1.95c.38,0,.54-.14.54-.45s-.16-.44-.55-.44h-.41v.89h.41Z"/>
        <path class="cls-2" d="m297.44,99.68v-2.78h-1.04v-.82h3.05v.82h-1.04v2.78h-.97Z"/>
        <path class="cls-2" d="m300.89,98.2c-.78-.15-1.12-.47-1.12-1.05,0-.69.5-1.08,1.38-1.08s1.37.37,1.44,1.05l-.89.09c-.06-.29-.22-.41-.55-.41-.29,0-.46.1-.46.29,0,.16.12.25.38.3l.47.09c.76.15,1.12.48,1.12,1.06,0,.73-.52,1.13-1.45,1.13s-1.45-.41-1.5-1.22h.92c.04.33.24.48.62.48.32,0,.49-.12.49-.33,0-.18-.13-.28-.38-.32l-.46-.09Z"/>
      </g>
      <text class="cls-3" transform="translate(293.22 85.24)"><tspan x="0" y="0">Powered by</tspan></text>
    </g>
  </g>
</svg>