<?xml version="1.0" encoding="UTF-8"?>
<svg id="Layer_1" data-name="Layer 1" xmlns="http://www.w3.org/2000/svg" xmlns:xlink="http://www.w3.org/1999/xlink" viewBox="0 0 408.54 136.35">
  <defs>
    <style>
      .cls-1 {
        fill: url(#linear-gradient-2);
      }

      .cls-2, .cls-3 {
        fill: #1e2854;
      }

      .cls-4 {
        fill: #1a478e;
      }

      .cls-3 {
        font-family: Poppins-Bold, Poppins;
        font-size: 32.33px;
        font-weight: 700;
      }

      .cls-5, .cls-6 {
        fill: #2a3e6b;
      }

      .cls-7 {
        fill: url(#linear-gradient-3);
      }

      .cls-8 {
        fill: url(#linear-gradient);
      }

      .cls-9 {
        fill: #0177be;
      }

      .cls-6 {
        font-family: WorkSans-Medium, 'Work Sans';
        font-size: 1.92px;
        font-weight: 500;
      }

      .cls-10 {
        fill: url(#linear-gradient-4);
      }
    </style>
    <linearGradient id="linear-gradient" x1="179.56" y1="105.89" x2="169.02" y2="105.89" gradientUnits="userSpaceOnUse">
      <stop offset="0" stop-color="#e40935"/>
      <stop offset=".11" stop-color="#d90b37"/>
      <stop offset=".29" stop-color="#be133f"/>
      <stop offset=".53" stop-color="#92204c"/>
      <stop offset=".81" stop-color="#55315e"/>
      <stop offset="1" stop-color="#2a3e6b"/>
    </linearGradient>
    <linearGradient id="linear-gradient-2" x1="169.05" y1="104.55" x2="174.32" y2="109.82" gradientUnits="userSpaceOnUse">
      <stop offset="0" stop-color="#e40935"/>
      <stop offset="1" stop-color="#e40935"/>
    </linearGradient>
    <linearGradient id="linear-gradient-3" x1="176.27" y1="104.57" x2="176.27" y2="111.16" xlink:href="#linear-gradient"/>
    <linearGradient id="linear-gradient-4" x1="170.73" y1="99.63" x2="177.93" y2="112.1" xlink:href="#linear-gradient-2"/>
  </defs>
  <g>
    <polygon class="cls-4" points="313.08 0 285.61 0 341.19 55.58 368.66 55.58 313.08 0"/>
    <polygon class="cls-2" points="313.08 111.15 285.61 111.15 341.19 55.58 368.66 55.58 313.08 111.15"/>
    <polygon class="cls-9" points="375.88 61.72 362.14 76.36 381.07 96.53 408.54 96.53 375.88 61.72"/>
    <polygon class="cls-2" points="375.88 48.36 408.54 15.69 381.07 15.69 362.14 34.62 375.88 48.36"/>
    <g>
      <polygon class="cls-2" points="66.93 12.33 37.78 41.58 27.03 30.86 45.51 12.35 66.93 12.33"/>
      <path class="cls-2" d="m67.02,80.64l-21.42.03-27.76-27.69c-.37-.37-.91-.47-1.39-.29-.5.21-.81.68-.8,1.2l.03,26.82-15.15.02L.44,12.41l15.15-.02.02,16.44c0,.33.15.66.37.91l51.03,50.9Z"/>
    </g>
    <g>
      <path class="cls-2" d="m89.72,28.73l.04,35.44c0,.7.58,1.28,1.28,1.28l43-.05.02,15.15-59.44.08-.09-68.31,59.44-.08.02,15.15-43,.05c-.7,0-1.28.58-1.28,1.28Z"/>
      <rect class="cls-2" x="96.73" y="38.84" width="28.45" height="15.15" transform="translate(-.06 .14) rotate(-.07)"/>
    </g>
    <polygon class="cls-2" points="157.46 42.91 157.46 80.65 141.68 80.4 141.68 27.5 157.46 42.91"/>
    <path class="cls-2" d="m209.97,12.14l.09,68.31-15.15.02-.06-44.53c0-.52-.31-.99-.79-1.18-.48-.21-1.03-.1-1.39.27l-16.81,16.83-34.18-34.11v-5.52s15.89-.02,15.89-.02l17.37,17.32c.5.5,1.3.49,1.8,0l17.32-17.37,15.9-.02Z"/>
    <path class="cls-2" d="m277.11,12.06l-22.14.03h-1.9s-35.39.05-35.39.05l.02,15.15,20.86-.03c.7,0,1.28.58,1.28,1.28l.07,51.87,15.15-.02-.07-53.16,22.14-.03-.02-15.15Z"/>
    <polygon class="cls-2" points="301.23 26.98 301.29 80.42 285.51 80.15 285.43 12.1 301.23 26.98"/>
  </g>
  <g>
    <g>
      <path class="cls-8" d="m172.07,108.64c-.27.79-.41,1.64-.41,2.52h-2.63c0-1.37.26-2.68.74-3.88.92.17,1.73.67,2.3,1.37Zm2.22-6.61c-.85.49-1.62,1.1-2.3,1.8-.33.33-.63.69-.91,1.07.86.28,1.64.74,2.3,1.33.27-.34.58-.67.91-.96.67-.6,1.45-1.09,2.3-1.44.92-.37,1.92-.58,2.97-.58v-2.63c-1.92,0-3.72.52-5.27,1.41Z"/>
      <path class="cls-1" d="m174.29,107.21c-.83,1.1-1.32,2.47-1.32,3.95,0-.95-.34-1.83-.91-2.52-.57-.7-1.38-1.19-2.3-1.37-.24-.05-.49-.07-.74-.07v-2.63c.72,0,1.41.12,2.06.33.86.28,1.64.74,2.3,1.33.33.29.64.62.91.98Z"/>
      <path class="cls-7" d="m179.56,104.57v2.63c-.25,0-.5.02-.74.07-.34-.85-.79-1.65-1.32-2.37.65-.22,1.34-.33,2.06-.33Zm-4.36,1.66c-.33.29-.64.62-.91.98-.83,1.1-1.32,2.47-1.32,3.95h2.63c0-.95.34-1.83.91-2.52-.3-.88-.75-1.7-1.32-2.41Z"/>
      <path class="cls-10" d="m179.56,111.16h-2.63c0-.88-.15-1.73-.41-2.52-.3-.88-.75-1.7-1.32-2.41-.28-.34-.58-.67-.91-.96.67-.6,1.45-1.09,2.3-1.44.33.33.63.69.91,1.07.54.73.98,1.52,1.32,2.37.48,1.2.74,2.51.74,3.88Zm-10.54-10.54v2.63c1.05,0,2.05.21,2.97.58.68-.7,1.45-1.31,2.3-1.8-1.55-.9-3.35-1.41-5.27-1.41Z"/>
    </g>
    <g>
      <path class="cls-5" d="m169.09,116.02v-4.12h1.54c1.11,0,1.65.45,1.65,1.37s-.55,1.41-1.64,1.41h-.48v1.34h-1.07Zm1.55-2.22c.43,0,.62-.16.62-.52s-.18-.5-.62-.5h-.47v1.02h.47Z"/>
      <path class="cls-5" d="m173.75,116.02v-3.18h-1.19v-.94h3.49v.94h-1.19v3.18h-1.11Z"/>
      <path class="cls-5" d="m177.69,114.33c-.9-.17-1.28-.53-1.28-1.2,0-.79.57-1.23,1.58-1.23s1.56.42,1.64,1.2l-1.02.1c-.07-.33-.25-.47-.63-.47-.34,0-.53.12-.53.34,0,.18.13.29.44.35l.53.1c.87.17,1.28.55,1.28,1.21,0,.83-.59,1.29-1.65,1.29s-1.65-.47-1.71-1.39h1.05c.04.37.27.54.7.54.37,0,.56-.13.56-.38,0-.2-.14-.32-.43-.37l-.52-.1Z"/>
    </g>
    <text class="cls-6" transform="translate(168.81 99.96)"><tspan x="0" y="0">Powered by</tspan></text>
  </g>
  <text class="cls-3" transform="translate(0 116.76) scale(1.04 1)"><tspan x="0" y="0">Ventures</tspan></text>
</svg>