<?xml version="1.0" encoding="UTF-8"?>
<svg id="Layer_1" data-name="Layer 1" xmlns="http://www.w3.org/2000/svg" xmlns:xlink="http://www.w3.org/1999/xlink" viewBox="0 0 232.95 66.77">
  <defs>
    <style>
      .cls-1 {
        fill: url(#linear-gradient-2);
      }

      .cls-2 {
        fill: #1e2854;
      }

      .cls-3 {
        fill: #1a478e;
      }

      .cls-4, .cls-5 {
        fill: #2a3e6b;
      }

      .cls-6 {
        fill: url(#linear-gradient-3);
      }

      .cls-7 {
        fill: url(#linear-gradient);
      }

      .cls-8 {
        fill: #0177be;
      }

      .cls-9 {
        fill: url(#linear-gradient-4);
      }

      .cls-5 {
        font-family: WorkSans-Medium, 'Work Sans';
        font-size: 1.09px;
        font-weight: 500;
      }
    </style>
    <linearGradient id="linear-gradient" x1="100.66" y1="60.4" x2="94.65" y2="60.4" gradientUnits="userSpaceOnUse">
      <stop offset="0" stop-color="#e40935"/>
      <stop offset=".11" stop-color="#d90b37"/>
      <stop offset=".29" stop-color="#be133f"/>
      <stop offset=".53" stop-color="#92204c"/>
      <stop offset=".81" stop-color="#55315e"/>
      <stop offset="1" stop-color="#2a3e6b"/>
    </linearGradient>
    <linearGradient id="linear-gradient-2" x1="94.66" y1="59.64" x2="97.67" y2="62.65" gradientUnits="userSpaceOnUse">
      <stop offset="0" stop-color="#e40935"/>
      <stop offset="1" stop-color="#e40935"/>
    </linearGradient>
    <linearGradient id="linear-gradient-3" x1="98.78" y1="59.65" x2="98.78" y2="63.41" xlink:href="#linear-gradient"/>
    <linearGradient id="linear-gradient-4" x1="95.62" y1="56.83" x2="99.73" y2="63.95" xlink:href="#linear-gradient-2"/>
  </defs>
  <g>
    <polygon class="cls-3" points="178.48 0 162.8 0 194.51 31.71 210.19 31.71 178.48 0"/>
    <polygon class="cls-2" points="178.48 63.42 162.8 63.42 194.51 31.71 210.19 31.71 178.48 63.42"/>
    <polygon class="cls-8" points="214.31 35.22 206.47 43.57 217.27 55.08 232.95 55.08 214.31 35.22"/>
    <polygon class="cls-2" points="214.31 27.59 232.95 8.95 217.27 8.95 206.47 19.75 214.31 27.59"/>
    <g>
      <polygon class="cls-2" points="38.02 7.03 21.38 23.72 15.25 17.61 25.8 7.05 38.02 7.03"/>
      <path class="cls-2" d="m38.07,46.01l-12.22.02-15.84-15.8c-.21-.21-.52-.27-.79-.16-.28.12-.46.39-.46.68l.02,15.3H.13S.08,7.08.08,7.08h8.65s.01,9.37.01,9.37c0,.19.08.38.21.52l29.12,29.04Z"/>
    </g>
    <g>
      <path class="cls-2" d="m51.02,16.4l.03,20.22c0,.4.33.73.73.73l24.54-.03v8.65s-33.91.04-33.91.04l-.05-38.98,33.92-.04v8.65s-24.53.03-24.53.03c-.4,0-.73.33-.73.73Z"/>
      <rect class="cls-2" x="55.02" y="22.16" width="16.23" height="8.65" transform="translate(-.03 .08) rotate(-.07)"/>
    </g>
    <polygon class="cls-2" points="89.68 24.48 89.68 46.02 80.67 45.88 80.67 15.69 89.68 24.48"/>
    <path class="cls-2" d="m119.64,6.93l.05,38.98h-8.65s-.03-25.4-.03-25.4c0-.29-.18-.57-.45-.67-.27-.12-.59-.06-.79.15l-9.59,9.6-19.5-19.46v-3.15s9.07-.01,9.07-.01l9.91,9.89c.28.28.74.28,1.03,0l9.89-9.91h9.07Z"/>
    <path class="cls-2" d="m157.95,6.88l-12.64.02h-1.09s-20.2.03-20.2.03v8.65s11.91-.02,11.91-.02c.4,0,.73.33.73.73l.04,29.6h8.65s-.04-30.34-.04-30.34l12.64-.02V6.88Z"/>
    <polygon class="cls-2" points="171.71 15.39 171.75 45.89 162.75 45.73 162.7 6.91 171.71 15.39"/>
  </g>
  <g>
    <g>
      <path class="cls-7" d="m96.39,61.97c-.15.45-.23.93-.23,1.44h-1.5c0-.78.15-1.53.42-2.21.53.1.99.38,1.31.78Zm1.27-3.77c-.48.28-.93.63-1.31,1.03-.19.19-.36.39-.52.61.49.16.94.42,1.31.76.16-.2.33-.38.52-.55.38-.34.83-.62,1.31-.82.52-.21,1.1-.33,1.7-.33v-1.5c-1.09,0-2.12.29-3.01.81Z"/>
      <path class="cls-1" d="m97.65,61.16c-.47.63-.75,1.41-.75,2.25,0-.54-.19-1.05-.52-1.44-.33-.4-.79-.68-1.31-.78-.14-.03-.28-.04-.42-.04v-1.5c.41,0,.81.07,1.18.19.49.16.94.42,1.31.76.19.17.36.36.52.56Z"/>
      <path class="cls-6" d="m100.66,59.65v1.5c-.14,0-.29.01-.42.04-.19-.49-.45-.94-.75-1.35.37-.12.77-.19,1.18-.19Zm-2.49.95c-.19.17-.36.36-.52.56-.47.63-.75,1.41-.75,2.25h1.5c0-.54.19-1.05.52-1.44-.17-.5-.43-.97-.75-1.38Z"/>
      <path class="cls-9" d="m100.66,63.41h-1.5c0-.5-.08-.98-.23-1.44-.17-.5-.43-.97-.75-1.38-.16-.2-.33-.38-.52-.55.38-.34.83-.62,1.31-.82.19.19.36.39.52.61.31.41.56.87.75,1.35.27.69.42,1.43.42,2.21Zm-6.01-6.01v1.5c.6,0,1.17.12,1.69.33.39-.4.83-.75,1.31-1.03-.89-.51-1.91-.81-3.01-.81Z"/>
    </g>
    <g>
      <path class="cls-4" d="m94.69,66.19v-2.35h.88c.63,0,.94.26.94.78s-.31.8-.94.8h-.27v.76h-.61Zm.88-1.27c.25,0,.35-.09.35-.3s-.1-.29-.36-.29h-.27v.58h.27Z"/>
      <path class="cls-4" d="m97.34,66.19v-1.82h-.68v-.54h1.99v.54h-.68v1.82h-.63Z"/>
      <path class="cls-4" d="m99.59,65.22c-.51-.1-.73-.3-.73-.68,0-.45.32-.7.9-.7s.89.24.94.68l-.58.06c-.04-.19-.14-.27-.36-.27-.19,0-.3.07-.3.19,0,.1.08.16.25.2l.3.06c.5.1.73.31.73.69,0,.47-.34.73-.94.73s-.94-.27-.98-.79h.6c.03.21.15.31.4.31.21,0,.32-.08.32-.22,0-.12-.08-.18-.25-.21l-.3-.06Z"/>
    </g>
    <text class="cls-5" transform="translate(94.53 57.02)"><tspan x="0" y="0">Powered by</tspan></text>
  </g>
  <g>
    <path class="cls-2" d="m13.66,53.67l-4.78,12.95h-4.11L0,53.67h3.49l3.34,9.78,3.36-9.78h3.47Z"/>
    <path class="cls-2" d="m25.4,62.23h-7.42c.05.64.27,1.13.64,1.47.38.34.84.51,1.39.51.82,0,1.39-.33,1.71-1h3.49c-.18.68-.5,1.29-.97,1.83-.47.54-1.05.97-1.76,1.27-.7.31-1.49.46-2.36.46-1.05,0-1.98-.22-2.8-.65-.82-.43-1.46-1.05-1.92-1.84-.46-.8-.69-1.73-.69-2.8s.23-2,.68-2.8c.45-.8,1.09-1.41,1.91-1.84.82-.43,1.76-.65,2.82-.65s1.96.21,2.76.63c.81.42,1.44,1.01,1.89,1.79.45.77.68,1.68.68,2.71,0,.3-.02.6-.06.92Zm-3.3-1.75c0-.54-.19-.97-.58-1.29-.38-.32-.86-.48-1.44-.48s-1.01.15-1.39.46c-.38.31-.61.74-.7,1.31h4.11Z"/>
    <path class="cls-2" d="m37.05,57.39c.75.78,1.12,1.85,1.12,3.22v6.01h-3.26v-5.59c0-.69-.19-1.22-.56-1.6-.37-.38-.87-.57-1.5-.57s-1.13.19-1.5.57c-.37.38-.56.92-.56,1.6v5.59h-3.28v-10.29h3.28v1.36c.33-.45.78-.81,1.34-1.08.56-.26,1.2-.4,1.9-.4,1.25,0,2.25.39,3,1.17Z"/>
    <path class="cls-2" d="m46.77,63.95v2.67h-1.67c-1.19,0-2.12-.28-2.78-.84-.67-.56-1-1.47-1-2.74v-4.1h-1.3v-2.62h1.3v-2.51h3.28v2.51h2.15v2.62h-2.15v4.13c0,.31.08.53.23.66.15.14.41.2.77.2h1.17Z"/>
    <path class="cls-2" d="m59.51,56.33v10.29h-3.28v-1.4c-.33.46-.78.82-1.35,1.1-.57.28-1.2.41-1.89.41-.82,0-1.54-.18-2.17-.53-.63-.35-1.11-.86-1.46-1.52-.35-.66-.52-1.44-.52-2.34v-6.01h3.26v5.59c0,.69.19,1.22.56,1.6.37.38.87.57,1.5.57s1.14-.19,1.52-.57c.37-.38.56-.92.56-1.6v-5.59h3.28Z"/>
    <path class="cls-2" d="m66.93,56.71c.58-.33,1.21-.49,1.92-.49v3.34h-.9c-.82,0-1.43.17-1.84.51s-.61.93-.61,1.78v4.78h-3.28v-10.29h3.28v1.72c.38-.57.86-1.01,1.44-1.34Z"/>
    <path class="cls-2" d="m80.8,62.23h-7.42c.05.64.27,1.13.64,1.47.38.34.84.51,1.39.51.82,0,1.39-.33,1.71-1h3.49c-.18.68-.5,1.29-.97,1.83-.47.54-1.05.97-1.76,1.27-.7.31-1.49.46-2.36.46-1.05,0-1.98-.22-2.8-.65-.82-.43-1.46-1.05-1.92-1.84-.46-.8-.69-1.73-.69-2.8s.23-2,.68-2.8c.45-.8,1.09-1.41,1.91-1.84.82-.43,1.76-.65,2.82-.65s1.96.21,2.76.63c.81.42,1.44,1.01,1.89,1.79.45.77.68,1.68.68,2.71,0,.3-.02.6-.06.92Zm-3.3-1.75c0-.54-.19-.97-.58-1.29-.38-.32-.86-.48-1.44-.48s-1.01.15-1.39.46c-.38.31-.61.74-.7,1.31h4.11Z"/>
    <path class="cls-2" d="m84.79,66.31c-.73-.31-1.3-.73-1.73-1.26s-.66-1.13-.71-1.8h3.24c.04.36.21.65.52.87.31.22.68.33,1.13.33.41,0,.73-.08.95-.23.22-.15.34-.35.34-.6,0-.3-.16-.51-.48-.65-.32-.14-.84-.3-1.55-.47-.77-.17-1.41-.35-1.92-.54-.51-.19-.95-.49-1.32-.9s-.56-.97-.56-1.67c0-.59.17-1.13.51-1.61.34-.49.84-.87,1.5-1.15.66-.28,1.44-.42,2.35-.42,1.34,0,2.4.32,3.17.96.77.64,1.22,1.49,1.33,2.55h-3.03c-.05-.36-.21-.64-.49-.85-.28-.21-.64-.31-1.08-.31-.38,0-.68.07-.88.21-.2.14-.31.34-.31.58,0,.3.16.52.49.66.33.15.83.3,1.53.44.79.2,1.44.39,1.94.58.5.19.94.5,1.31.92.38.42.57.99.59,1.71,0,.6-.18,1.14-.53,1.61-.35.47-.86.85-1.52,1.12-.66.27-1.42.41-2.29.41-.93,0-1.77-.15-2.49-.46Z"/>
  </g>
</svg>