<?xml version="1.0" encoding="UTF-8"?>
<svg id="Layer_1" data-name="Layer 1" xmlns="http://www.w3.org/2000/svg" xmlns:xlink="http://www.w3.org/1999/xlink" viewBox="0 0 203.27 189.94">
  <defs>
    <style>
      .cls-1 {
        fill: url(#linear-gradient-2);
      }

      .cls-2 {
        fill: #2c3a8f;
      }

      .cls-3, .cls-4 {
        fill: #2a3e6b;
      }

      .cls-4 {
        font-family: WorkSans-Medium, 'Work Sans';
        font-size: 2.9px;
        font-weight: 500;
      }

      .cls-5 {
        fill: #faa330;
      }

      .cls-6 {
        fill: #f4ba2d;
      }

      .cls-7 {
        fill: url(#linear-gradient-3);
      }

      .cls-8 {
        fill: url(#linear-gradient);
      }

      .cls-9 {
        fill: url(#linear-gradient-4);
      }
    </style>
    <linearGradient id="linear-gradient" x1="201.98" y1="123.28" x2="186.02" y2="123.28" gradientUnits="userSpaceOnUse">
      <stop offset="0" stop-color="#e40935"/>
      <stop offset=".11" stop-color="#d90b37"/>
      <stop offset=".29" stop-color="#be133f"/>
      <stop offset=".53" stop-color="#92204c"/>
      <stop offset=".81" stop-color="#55315e"/>
      <stop offset="1" stop-color="#2a3e6b"/>
    </linearGradient>
    <linearGradient id="linear-gradient-2" x1="186.05" y1="121.25" x2="194.03" y2="129.24" gradientUnits="userSpaceOnUse">
      <stop offset="0" stop-color="#e40935"/>
      <stop offset="1" stop-color="#e40935"/>
    </linearGradient>
    <linearGradient id="linear-gradient-3" x1="196.99" y1="121.29" x2="196.99" y2="131.27" xlink:href="#linear-gradient"/>
    <linearGradient id="linear-gradient-4" x1="188.61" y1="113.8" x2="199.51" y2="132.69" xlink:href="#linear-gradient-2"/>
  </defs>
  <g>
    <polygon class="cls-5" points="40.55 148.23 22.77 166.07 16.22 159.53 27.49 148.24 40.55 148.23"/>
    <path class="cls-2" d="m40.61,189.89l-13.06.02-16.93-16.89c-.23-.23-.56-.29-.85-.18-.3.13-.49.42-.49.73l.02,16.36H.05s-.05-41.65-.05-41.65h9.24s.01,10.01.01,10.01c0,.2.09.4.23.55l31.12,31.04Z"/>
  </g>
  <g>
    <path class="cls-2" d="m19.9,121.89c0-39.45.09-77.93-.12-116.41C19.75.97,20.93-.05,25.28,0c20.71.23,41.42.1,62.16.1-1.13,8.78-1.5,9.13-9.77,9.13-14.21,0-28.43.27-42.63-.14-5.18-.15-5.99,1.54-5.94,6.25.24,26.45-.36,52.91.35,79.34.28,10.36-2.89,18.65-9.55,27.22Z"/>
    <path class="cls-2" d="m177.07,121.89c0-39.45-.09-77.93.12-116.41.02-4.51-1.16-5.53-5.51-5.48-20.71.23-41.42.1-62.16.1,1.13,8.78,1.51,9.13,9.77,9.13,14.21,0,28.43.27,42.63-.14,5.18-.15,5.99,1.54,5.94,6.25-.24,26.45.36,52.91-.35,79.34-.28,10.36,2.91,18.65,9.55,27.22Z"/>
    <path class="cls-6" d="m177.98,138.72c-5.48,0-10.75-.04-16.05.03-1.25,0-1.68-.66-2.22-1.59-12.05-20.85-24.21-41.65-36.18-62.55-1.3-2.28-2.62-3.22-5.29-3.07-3.03.16-5.61.08-8.62,0-.95-.58-1.85-1.25-2.67-2.01-2.38-2.06-5.24-2.6-8.16-.98-2.93,1.62-4.15,4.1-3.86,7.31.29,3.21,2.4,5.02,5.25,5.99,2.54.86,5.02.47,6.83-1.59.66-.76,1.45-1.4,2.34-1.87,1.82,0,3.65,0,5.47-.05,1.82-.05,3.03.51,3.94,2.09,11.09,19.32,22.21,38.61,33.6,58.4-5.93,0-11.49.06-17.04-.04-1.12,0-1.36-1.36-1.87-2.2-7.8-13.45-15.64-26.88-23.32-40.39-1.06-1.87-2.17-2.4-4.21-2.45-3.37-.07-6.91-.19-13.18-.04-.6-.44-1.18-.91-1.74-1.4-2.38-2.06-5.24-2.6-8.16-.98-2.93,1.62-4.15,4.09-3.86,7.31.29,3.22,2.4,5.02,5.25,5.98,2.54.86,5.02.47,6.83-1.59.67-.78,1.48-1.43,2.4-1.89.42,0,.84-.03,1.26-.05,7.41-.35,11.44,1.46,14.73,8.14,4.9,9.97,10.96,19.36,16.6,29.13-1.18.86-2.38.56-3.51.57-33.69.07-67.37.12-101.06.16q-3.3,0-1.76-2.69C45.39,91.86,71.07,47.33,96.76,2.81c.4-.69.86-1.36,1.48-2.34l27.73,48.16c-5.61,0-10.67.1-15.72-.06-1.99-.06-3.03-1.76-3.94-3.38-2.55-4.54-5.14-9.06-8.01-14.18-2.81,4.79-5.32,9.04-7.79,13.32-14.7,25.47-29.4,50.95-44.09,76.43q-1.64,2.84,1.49,2.87c13.49.09,26.98-.12,40.48.08.71.44,1.35.99,1.9,1.62,1.8,2.06,4.29,2.45,6.83,1.59,2.85-.97,4.97-2.77,5.25-5.99.29-3.22-1.01-5.73-3.86-7.3-2.86-1.57-5.78-1.08-8.16.98-.66.59-1.36,1.14-2.09,1.65h-31.18c13.83-23.91,27.39-47.4,41.2-71.29,1.74,2.99,3.41,5.49,4.68,8.18,1.12,2.34,2.71,3.02,5.22,2.96,6.55-.16,13.09-.02,19.6-.08,1.77,0,3.03.49,3.95,2.1,15.25,26.53,30.53,53.04,45.82,79.55.15.24.24.5.46,1.03Z"/>
    <path class="cls-5" d="m177.98,138.72c-5.48,0-10.75-.04-16.05.03-1.25,0-1.68-.66-2.22-1.59-12.05-20.85-24.21-41.65-36.18-62.55-1.3-2.28-2.62-3.22-5.29-3.07-3.03.16-5.61.08-8.62,0-.95-.58-1.85-1.25-2.67-2.01-2.38-2.06-5.24-2.6-8.16-.98-2.93,1.62-4.15,4.1-3.86,7.31.29,3.21,2.4,5.02,5.25,5.99,2.54.86,5.02.47,6.83-1.59.66-.76,1.45-1.4,2.34-1.87,1.82,0,3.65,0,5.47-.05,1.82-.05,3.03.51,3.94,2.09,11.09,19.32,22.21,38.61,33.6,58.4-5.93,0-11.49.06-17.04-.04-1.12,0-1.36-1.36-1.87-2.2-7.8-13.45-15.64-26.88-23.32-40.39-1.06-1.87-2.17-2.4-4.21-2.45-3.37-.07-6.91-.19-13.18-.04-.6-.44-1.18-.91-1.74-1.4-2.38-2.06-5.24-2.6-8.16-.98-2.93,1.62-4.15,4.09-3.86,7.31.29,3.22,2.4,5.02,5.25,5.98,2.54.86,5.02.47,6.83-1.59.67-.78,1.48-1.43,2.4-1.89.42,0,.84-.03,1.26-.05,7.41-.35,11.44,1.46,14.73,8.14,4.9,9.97,10.96,19.36,16.6,29.13-1.18.86-2.38.56-3.51.57-33.69.07-67.37.12-101.06.16q-3.3,0-1.76-2.69C45.39,91.86,71.07,47.33,96.76,2.81c.4-.69.86-1.36,1.48-2.34l27.73,48.16c-5.61,0-10.67.1-15.72-.06-1.99-.06-3.03-1.76-3.94-3.38-2.55-4.54-5.14-9.06-8.01-14.18-2.81,4.79-5.32,9.04-7.79,13.32-14.7,25.47-29.4,50.95-44.09,76.43q-1.64,2.84,1.49,2.87c13.49.09,26.98-.12,40.48.08.71.44,1.35.99,1.9,1.62,1.8,2.06,4.29,2.45,6.83,1.59,2.85-.97,4.97-2.77,5.25-5.99.29-3.22-1.01-5.73-3.86-7.3-2.86-1.57-5.78-1.08-8.16.98-.66.59-1.36,1.14-2.09,1.65h-31.18c13.83-23.91,27.39-47.4,41.2-71.29,1.74,2.99,3.41,5.49,4.68,8.18,1.12,2.34,2.71,3.02,5.22,2.96,6.55-.16,13.09-.02,19.6-.08,1.77,0,3.03.49,3.95,2.1,15.25,26.53,30.53,53.04,45.82,79.55.15.24.24.5.46,1.03Z"/>
    <path class="cls-5" d="m177.98,138.72c-5.48,0-10.75-.04-16.05.03-1.25,0-1.68-.66-2.22-1.59-12.05-20.85-24.21-41.65-36.18-62.55-1.3-2.28-2.62-3.22-5.29-3.07-3.03.16-5.61.08-8.62,0-.95-.58-1.85-1.25-2.67-2.01-2.38-2.06-5.24-2.6-8.16-.98-2.93,1.62-4.15,4.1-3.86,7.31.29,3.21,2.4,5.02,5.25,5.99,2.54.86,5.02.47,6.83-1.59.66-.76,1.45-1.4,2.34-1.87,1.82,0,3.65,0,5.47-.05,1.82-.05,3.03.51,3.94,2.09,11.09,19.32,22.21,38.61,33.6,58.4-5.93,0-11.49.06-17.04-.04-1.12,0-1.36-1.36-1.87-2.2-7.8-13.45-15.64-26.88-23.32-40.39-1.06-1.87-2.17-2.4-4.21-2.45-3.37-.07-6.91-.19-13.18-.04-.6-.44-1.18-.91-1.74-1.4-2.38-2.06-5.24-2.6-8.16-.98-2.93,1.62-4.15,4.09-3.86,7.31.29,3.22,2.4,5.02,5.25,5.98,2.54.86,5.02.47,6.83-1.59.67-.78,1.48-1.43,2.4-1.89.42,0,.84-.03,1.26-.05,7.41-.35,11.44,1.46,14.73,8.14,4.9,9.97,10.96,19.36,16.6,29.13-1.18.86-2.38.56-3.51.57-33.69.07-67.37.12-101.06.16q-3.3,0-1.76-2.69C45.39,91.86,71.07,47.33,96.76,2.81c.4-.69.86-1.36,1.48-2.34l27.73,48.16c-5.61,0-10.67.1-15.72-.06-1.99-.06-3.03-1.76-3.94-3.38-2.55-4.54-5.14-9.06-8.01-14.18-2.81,4.79-5.32,9.04-7.79,13.32-14.7,25.47-29.4,50.95-44.09,76.43q-1.64,2.84,1.49,2.87c13.49.09,26.98-.12,40.48.08.71.44,1.35.99,1.9,1.62,1.8,2.06,4.29,2.45,6.83,1.59,2.85-.97,4.97-2.77,5.25-5.99.29-3.22-1.01-5.73-3.86-7.3-2.86-1.57-5.78-1.08-8.16.98-.66.59-1.36,1.14-2.09,1.65h-31.18c13.83-23.91,27.39-47.4,41.2-71.29,1.74,2.99,3.41,5.49,4.68,8.18,1.12,2.34,2.71,3.02,5.22,2.96,6.55-.16,13.09-.02,19.6-.08,1.77,0,3.03.49,3.95,2.1,15.25,26.53,30.53,53.04,45.82,79.55.15.24.24.5.46,1.03Z"/>
  </g>
  <g>
    <path class="cls-2" d="m65.6,174.41v.61c0,.19-.02.38-.04.57h-17.76c.12,1.74.82,3.39,1.99,4.68,1.11,1.17,2.65,1.76,4.6,1.75,1.31.07,2.62-.3,3.71-1.04.99-.78,1.75-1.82,2.2-2.99l4.68.65c-.31,1.18-.8,2.3-1.46,3.32-.65.98-1.46,1.85-2.4,2.56-1,.74-2.11,1.31-3.3,1.67-1.33.4-2.72.6-4.12.59-1.57.01-3.13-.27-4.6-.83-1.4-.53-2.68-1.36-3.74-2.42-1.1-1.11-1.96-2.44-2.53-3.89-.65-1.67-.97-3.45-.94-5.23-.02-1.73.29-3.45.91-5.07,1.13-2.94,3.44-5.28,6.36-6.45,1.49-.61,3.09-.91,4.71-.9,1.76-.04,3.51.3,5.13.98,1.4.61,2.66,1.52,3.67,2.67,1,1.14,1.74,2.48,2.2,3.93.5,1.56.75,3.2.74,4.84Zm-5.35-2.48c-.25-1.52-.94-2.93-2-4.05-2.38-2.14-5.99-2.14-8.37,0-1.05,1.13-1.73,2.54-1.98,4.05h12.35Z"/>
    <path class="cls-2" d="m65.6,174.41v.61c0,.19-.02.38-.04.57h-17.76c.12,1.74.82,3.39,1.99,4.68,1.11,1.17,2.65,1.76,4.6,1.75,1.31.07,2.62-.3,3.71-1.04.99-.78,1.75-1.82,2.2-2.99l4.68.65c-.31,1.18-.8,2.3-1.46,3.32-.65.98-1.46,1.85-2.4,2.56-1,.74-2.11,1.31-3.3,1.67-1.33.4-2.72.6-4.12.59-1.57.01-3.13-.27-4.6-.83-1.4-.53-2.68-1.36-3.74-2.42-1.1-1.11-1.96-2.44-2.53-3.89-.65-1.67-.97-3.45-.94-5.23-.02-1.73.29-3.45.91-5.07,1.13-2.94,3.44-5.28,6.36-6.45,1.49-.61,3.09-.91,4.71-.9,1.76-.04,3.51.3,5.13.98,1.4.61,2.66,1.52,3.67,2.67,1,1.14,1.74,2.48,2.2,3.93.5,1.56.75,3.2.74,4.84Zm-5.35-2.48c-.25-1.52-.94-2.93-2-4.05-2.38-2.14-5.99-2.14-8.37,0-1.05,1.13-1.73,2.54-1.98,4.05h12.35Z"/>
    <path class="cls-2" d="m106.25,171.03v15.46h-5.88v-14.11c.02-.92-.11-1.84-.39-2.71-.21-.64-.55-1.24-.99-1.75-.38-.43-.87-.76-1.41-.96-.53-.19-1.09-.28-1.65-.28-.62,0-1.24.08-1.83.25-.58.15-1.11.45-1.55.86-.49.48-.86,1.06-1.07,1.71-.29.9-.42,1.84-.39,2.79v14.22h-5.99v-14.2c.02-.86-.1-1.71-.36-2.52-.21-.64-.56-1.24-1.02-1.73-.42-.44-.94-.78-1.51-.99-.59-.22-1.21-.33-1.83-.33-.61,0-1.21.09-1.79.28-.57.19-1.09.51-1.51.94-.48.49-.84,1.07-1.07,1.71-.3.86-.44,1.76-.41,2.67v14.17h-5.93v-24.21h6.03v3.79c.16-.43.39-.84.67-1.2.38-.51.83-.96,1.35-1.34.62-.46,1.3-.83,2.02-1.1.87-.33,1.8-.49,2.73-.47.88-.01,1.75.11,2.59.37.72.23,1.39.57,1.99,1.02.59.44,1.12.97,1.57,1.55.48.63.9,1.29,1.26,1.99.68-1.41,1.69-2.62,2.95-3.54,1.47-.98,3.22-1.47,4.99-1.38,1.12,0,2.22.23,3.24.7,1.01.46,1.91,1.11,2.67,1.91.79.83,1.41,1.81,1.83,2.87.46,1.14.7,2.37.69,3.6Z"/>
    <path class="cls-2" d="m106.25,171.03v15.46h-5.88v-14.11c.02-.92-.11-1.84-.39-2.71-.21-.64-.55-1.24-.99-1.75-.38-.43-.87-.76-1.41-.96-.53-.19-1.09-.28-1.65-.28-.62,0-1.24.08-1.83.25-.58.15-1.11.45-1.55.86-.49.48-.86,1.06-1.07,1.71-.29.9-.42,1.84-.39,2.79v14.22h-5.99v-14.2c.02-.86-.1-1.71-.36-2.52-.21-.64-.56-1.24-1.02-1.73-.42-.44-.94-.78-1.51-.99-.59-.22-1.21-.33-1.83-.33-.61,0-1.21.09-1.79.28-.57.19-1.09.51-1.51.94-.48.49-.84,1.07-1.07,1.71-.3.86-.44,1.76-.41,2.67v14.17h-5.93v-24.21h6.03v3.79c.16-.43.39-.84.67-1.2.38-.51.83-.96,1.35-1.34.62-.46,1.3-.83,2.02-1.1.87-.33,1.8-.49,2.73-.47.88-.01,1.75.11,2.59.37.72.23,1.39.57,1.99,1.02.59.44,1.12.97,1.57,1.55.48.63.9,1.29,1.26,1.99.68-1.41,1.69-2.62,2.95-3.54,1.47-.98,3.22-1.47,4.99-1.38,1.12,0,2.22.23,3.24.7,1.01.46,1.91,1.11,2.67,1.91.79.83,1.41,1.81,1.83,2.87.46,1.14.7,2.37.69,3.6Z"/>
    <path class="cls-2" d="m125.6,181.3v4.19c-.47.33-.98.58-1.53.75-.51.17-1.04.3-1.57.39-1.37.25-2.78.21-4.14-.12-.63-.16-1.23-.42-1.79-.75-.47-.28-.89-.64-1.24-1.07-.32-.39-.59-.81-.81-1.26-.51-1.05-.77-2.21-.78-3.38v-13.37h-3.18v-3.5c.4-.06.79-.15,1.18-.27.45-.14.87-.34,1.26-.59.7-.42,1.29-.99,1.75-1.67.41-.59.74-1.23,1-1.9.21-.52.36-1.06.45-1.6.06-.48.1-.78.1-.92h3.34c0,1.07.04,2.14.04,3.21s0,2.14.04,3.21h5.64v4.07h-5.6c.09,7.41.13,11.77.12,13.07,0,.25.03.49.08.73.06.34.24.66.49.9.31.33.73.54,1.18.57.49.05.99.05,1.49,0,.48-.05.96-.15,1.42-.3l1.04-.4Z"/>
    <path class="cls-2" d="m125.6,181.3v4.19c-.47.33-.98.58-1.53.75-.51.17-1.04.3-1.57.39-1.37.25-2.78.21-4.14-.12-.63-.16-1.23-.42-1.79-.75-.47-.28-.89-.64-1.24-1.07-.32-.39-.59-.81-.81-1.26-.51-1.05-.77-2.21-.78-3.38v-13.37h-3.18v-3.5c.4-.06.79-.15,1.18-.27.45-.14.87-.34,1.26-.59.7-.42,1.29-.99,1.75-1.67.41-.59.74-1.23,1-1.9.21-.52.36-1.06.45-1.6.06-.48.1-.78.1-.92h3.34c0,1.07.04,2.14.04,3.21s0,2.14.04,3.21h5.64v4.07h-5.6c.09,7.41.13,11.77.12,13.07,0,.25.03.49.08.73.06.34.24.66.49.9.31.33.73.54,1.18.57.49.05.99.05,1.49,0,.48-.05.96-.15,1.42-.3l1.04-.4Z"/>
    <path class="cls-2" d="m151.34,174.41v.61c0,.19-.02.38-.04.57h-17.76c.12,1.74.83,3.39,1.99,4.68,1.12,1.17,2.65,1.76,4.6,1.75,1.32.07,2.62-.3,3.71-1.04.99-.78,1.75-1.82,2.2-2.99l4.68.65c-.31,1.18-.8,2.3-1.46,3.32-.65.99-1.46,1.85-2.41,2.56-.99.74-2.11,1.31-3.3,1.67-1.33.4-2.72.6-4.11.59-1.57.01-3.13-.27-4.6-.83-1.4-.54-2.68-1.36-3.74-2.42-1.09-1.11-1.95-2.44-2.52-3.89-.65-1.67-.97-3.45-.94-5.23-.02-1.73.29-3.45.91-5.07,1.13-2.94,3.43-5.28,6.35-6.45,1.49-.61,3.09-.91,4.71-.9,1.76-.04,3.51.29,5.13.98,1.4.61,2.65,1.53,3.67,2.67.99,1.15,1.74,2.48,2.2,3.93.49,1.57.73,3.2.72,4.84Zm-5.35-2.48c-.24-1.52-.94-2.93-1.99-4.05-2.38-2.15-5.99-2.15-8.37,0-1.04,1.13-1.73,2.54-1.97,4.05h12.34Z"/>
    <path class="cls-2" d="m151.34,174.41v.61c0,.19-.02.38-.04.57h-17.76c.12,1.74.83,3.39,1.99,4.68,1.12,1.17,2.65,1.76,4.6,1.75,1.32.07,2.62-.3,3.71-1.04.99-.78,1.75-1.82,2.2-2.99l4.68.65c-.31,1.18-.8,2.3-1.46,3.32-.65.99-1.46,1.85-2.41,2.56-.99.74-2.11,1.31-3.3,1.67-1.33.4-2.72.6-4.11.59-1.57.01-3.13-.27-4.6-.83-1.4-.54-2.68-1.36-3.74-2.42-1.09-1.11-1.95-2.44-2.52-3.89-.65-1.67-.97-3.45-.94-5.23-.02-1.73.29-3.45.91-5.07,1.13-2.94,3.43-5.28,6.35-6.45,1.49-.61,3.09-.91,4.71-.9,1.76-.04,3.51.29,5.13.98,1.4.61,2.65,1.53,3.67,2.67.99,1.15,1.74,2.48,2.2,3.93.49,1.57.73,3.2.72,4.84Zm-5.35-2.48c-.24-1.52-.94-2.93-1.99-4.05-2.38-2.15-5.99-2.15-8.37,0-1.04,1.13-1.73,2.54-1.97,4.05h12.34Z"/>
    <path class="cls-2" d="m166.65,182.21c1.55.07,3.05-.52,4.15-1.6,1.09-1.11,1.84-2.52,2.14-4.05l4.81.53c-.23,1.34-.65,2.63-1.25,3.85-.57,1.16-1.36,2.2-2.32,3.05-1.01.88-2.17,1.57-3.42,2.02-1.46.51-2.99.76-4.54.73-1.65.02-3.29-.3-4.81-.94-1.41-.6-2.69-1.49-3.74-2.6-1.07-1.14-1.9-2.47-2.46-3.93-1.18-3.15-1.18-6.61,0-9.76.56-1.47,1.4-2.81,2.48-3.95,1.07-1.13,2.36-2.04,3.78-2.67,1.52-.67,3.16-1,4.81-.98,1.5-.02,2.98.25,4.38.78,1.28.49,2.45,1.22,3.46,2.14,1,.92,1.82,2,2.44,3.21.64,1.26,1.08,2.61,1.28,4.01l-4.76.45c-.19-1.65-.91-3.19-2.04-4.4-1.14-1.14-2.71-1.74-4.32-1.67-.99-.02-1.98.18-2.89.59-.8.39-1.51.95-2.06,1.65-.57.74-1,1.58-1.24,2.49-.28,1.02-.42,2.07-.41,3.13,0,1.06.14,2.11.45,3.12.27.91.71,1.76,1.3,2.51.53.71,1.21,1.29,1.98,1.72.87.41,1.82.61,2.78.59Z"/>
    <path class="cls-2" d="m166.65,182.21c1.55.07,3.05-.52,4.15-1.6,1.09-1.11,1.84-2.52,2.14-4.05l4.81.53c-.23,1.34-.65,2.63-1.25,3.85-.57,1.16-1.36,2.2-2.32,3.05-1.01.88-2.17,1.57-3.42,2.02-1.46.51-2.99.76-4.54.73-1.65.02-3.29-.3-4.81-.94-1.41-.6-2.69-1.49-3.74-2.6-1.07-1.14-1.9-2.47-2.46-3.93-1.18-3.15-1.18-6.61,0-9.76.56-1.47,1.4-2.81,2.48-3.95,1.07-1.13,2.36-2.04,3.78-2.67,1.52-.67,3.16-1,4.81-.98,1.5-.02,2.98.25,4.38.78,1.28.49,2.45,1.22,3.46,2.14,1,.92,1.82,2,2.44,3.21.64,1.26,1.08,2.61,1.28,4.01l-4.76.45c-.19-1.65-.91-3.19-2.04-4.4-1.14-1.14-2.71-1.74-4.32-1.67-.99-.02-1.98.18-2.89.59-.8.39-1.51.95-2.06,1.65-.57.74-1,1.58-1.24,2.49-.28,1.02-.42,2.07-.41,3.13,0,1.06.14,2.11.45,3.12.27.91.71,1.76,1.3,2.51.53.71,1.21,1.29,1.98,1.72.87.41,1.82.61,2.78.59Z"/>
    <path class="cls-2" d="m203.27,186.49h-5.79v-14.44c0-.61-.11-1.22-.3-1.8-.2-.59-.51-1.13-.91-1.6-.44-.48-.98-.87-1.57-1.14-.71-.31-1.48-.47-2.26-.45-1.27,0-2.5.47-3.46,1.3-.47.42-.85.93-1.1,1.51-.28.63-.42,1.31-.41,1.99v14.62h-5.95v-32.4h5.95v12.71c.13-.67.42-1.29.86-1.81.49-.61,1.07-1.13,1.73-1.55.71-.46,1.47-.82,2.28-1.07,1.9-.58,3.94-.5,5.79.22,1.01.4,1.92,1,2.67,1.78.79.82,1.41,1.79,1.81,2.85.47,1.23.7,2.54.67,3.85v15.43Z"/>
    <path class="cls-2" d="m203.27,186.49h-5.79v-14.44c0-.61-.11-1.22-.3-1.8-.2-.59-.51-1.13-.91-1.6-.44-.48-.98-.87-1.57-1.14-.71-.31-1.48-.47-2.26-.45-1.27,0-2.5.47-3.46,1.3-.47.42-.85.93-1.1,1.51-.28.63-.42,1.31-.41,1.99v14.62h-5.95v-32.4h5.95v12.71c.13-.67.42-1.29.86-1.81.49-.61,1.07-1.13,1.73-1.55.71-.46,1.47-.82,2.28-1.07,1.9-.58,3.94-.5,5.79.22,1.01.4,1.92,1,2.67,1.78.79.82,1.41,1.79,1.81,2.85.47,1.23.7,2.54.67,3.85v15.43Z"/>
  </g>
  <g>
    <g>
      <path class="cls-8" d="m190.63,127.45c-.4,1.2-.62,2.48-.62,3.81h-3.99c0-2.08.4-4.06,1.12-5.88,1.39.26,2.62,1.02,3.49,2.07Zm3.37-10.01c-1.28.75-2.46,1.66-3.48,2.73-.49.51-.95,1.05-1.37,1.62,1.3.43,2.48,1.12,3.49,2.01.42-.52.88-1.01,1.37-1.45,1.02-.91,2.2-1.66,3.48-2.18,1.39-.57,2.91-.88,4.5-.88v-3.99c-2.91,0-5.63.78-7.98,2.14Z"/>
      <path class="cls-1" d="m194,125.29c-1.25,1.67-2,3.74-2,5.98,0-1.45-.52-2.78-1.37-3.81-.87-1.05-2.1-1.8-3.49-2.07-.36-.07-.74-.11-1.12-.11v-3.99c1.09,0,2.14.17,3.13.5,1.3.43,2.48,1.12,3.49,2.01.51.45.97.95,1.37,1.49Z"/>
      <path class="cls-7" d="m201.98,121.29v3.99c-.38,0-.76.04-1.12.11-.51-1.29-1.19-2.5-2-3.6.98-.33,2.04-.5,3.13-.5Zm-6.61,2.51c-.51.45-.97.95-1.37,1.49-1.25,1.67-2,3.74-2,5.98h3.99c0-1.45.52-2.78,1.37-3.81-.45-1.34-1.13-2.57-2-3.65Z"/>
      <path class="cls-9" d="m201.98,131.27h-3.99c0-1.33-.22-2.61-.62-3.81-.45-1.34-1.13-2.57-2-3.65-.42-.52-.88-1.01-1.37-1.45,1.02-.91,2.2-1.66,3.48-2.18.49.51.95,1.05,1.37,1.62.81,1.1,1.49,2.31,2,3.6.72,1.82,1.12,3.8,1.12,5.88Zm-15.97-15.97v3.99c1.59,0,3.11.31,4.5.88,1.03-1.06,2.2-1.98,3.48-2.73-2.35-1.36-5.08-2.14-7.98-2.14Z"/>
    </g>
    <g>
      <path class="cls-3" d="m186.12,138.64v-6.24h2.34c1.68,0,2.5.68,2.5,2.08s-.83,2.13-2.48,2.13h-.73v2.03h-1.63Zm2.34-3.37c.66,0,.94-.24.94-.79s-.27-.76-.94-.76h-.71v1.55h.72Z"/>
      <path class="cls-3" d="m193.17,138.64v-4.82h-1.8v-1.43h5.28v1.43h-1.8v4.82h-1.68Z"/>
      <path class="cls-3" d="m199.15,136.08c-1.36-.26-1.94-.81-1.94-1.82,0-1.2.86-1.87,2.39-1.87s2.36.64,2.49,1.82l-1.55.16c-.11-.5-.38-.71-.95-.71-.51,0-.8.17-.8.51,0,.27.2.43.67.52l.81.16c1.32.26,1.93.83,1.93,1.84,0,1.26-.9,1.95-2.51,1.95s-2.51-.71-2.6-2.11h1.59c.07.57.41.82,1.07.82.56,0,.85-.2.85-.57,0-.31-.22-.48-.66-.56l-.79-.15Z"/>
    </g>
    <text class="cls-4" transform="translate(185.69 114.31)"><tspan x="0" y="0">Powered by</tspan></text>
  </g>
</svg>