<?xml version="1.0" encoding="UTF-8"?>
<svg id="Layer_1" data-name="Layer 1" xmlns="http://www.w3.org/2000/svg" viewBox="0 0 405.08 160.34">
  <defs>
    <style>
      .cls-1 {
        fill: #6a6a6a;
      }

      .cls-2 {
        fill: #696969;
      }

      .cls-3 {
        fill: #f39617;
      }
    </style>
  </defs>
  <path class="cls-2" d="m236.72,42.95c0,8.85,0,17.69,0,26.54,0,9.23-7.04,16.28-16.27,16.28-12.3,0-24.6-.01-36.9.03-1.13,0-1.36-.33-1.36-1.4.03-27.66.03-55.33,0-82.99,0-1.19.33-1.42,1.46-1.42,12.22.04,24.44.02,36.66.03,9.4,0,16.41,7,16.42,16.38,0,8.85,0,17.69,0,26.54Z"/>
  <path class="cls-2" d="m215.58,127.82c0-9.85,0-19.69,0-29.54,0-1.71.24-1.96,1.92-1.95,7.45,0,14.9-.03,22.35.03,5.07.05,10.04.77,14.83,2.56,8.37,3.13,13.61,9.06,15.71,17.69,1.81,7.45,1.91,14.95-.6,22.25-3.64,10.61-11.32,16.85-22.1,19.45-3.28.79-6.63,1.02-10.01,1.01-6.77-.02-13.54,0-20.31,0-1.51,0-1.79-.3-1.79-1.84,0-9.89,0-19.77,0-29.66Zm15.37-.05c0,5.89.02,11.77-.02,17.66,0,.9.23,1.16,1.13,1.13,2.68-.11,5.37.11,8.04-.22,6.09-.74,10.7-3.65,13.4-9.24,2.12-4.4,2.37-9.09,1.72-13.85-.92-6.7-5.42-11.72-11.94-13.39-3.7-.95-7.48-.69-11.24-.77-.93-.02-1.12.28-1.11,1.15.04,5.85.02,11.69.02,17.54Z"/>
  <path class="cls-2" d="m46.81,119.29c.49-.52.79-.82,1.07-1.14,5.33-6.08,14.41-6.3,19.78-3.76,4.18,1.98,6.21,5.6,7.24,9.91.58,2.42.77,4.89.76,7.38-.01,8.65,0,17.29,0,25.94,0,1.43-.27,1.7-1.66,1.7-3.89,0-7.77,0-11.66,0-1.4,0-1.65-.26-1.65-1.71,0-7.64,0-15.29,0-22.93,0-1.84-.11-3.68-.66-5.46-1.4-4.56-6.85-6.02-10.38-2.77-2.09,1.93-2.81,4.41-2.82,7.15-.02,7.92,0,15.85,0,23.77,0,1.78-.17,1.95-1.9,1.95-3.81,0-7.61,0-11.42,0-1.42,0-1.7-.28-1.7-1.67,0-14.05,0-28.1,0-42.15,0-1.33.3-1.63,1.62-1.63,3.93,0,7.85,0,11.78,0,1.33,0,1.61.29,1.62,1.63,0,1.16,0,2.32,0,3.79Z"/>
  <path class="cls-2" d="m188.26,154.64c-4.65,5.45-10.58,6.67-17.13,5.02-5.68-1.44-8.84-5.43-9.51-11.21-.81-6.91,1.61-12.99,8.88-15.94,1.9-.77,3.87-1.28,5.9-1.56,3.69-.51,7.37-1.01,11.06-1.45.86-.1,1.06-.44.93-1.24-.41-2.44-2.06-4.12-4.65-4.5-4.41-.66-8.6.28-12.62,2.04-1.2.53-2.34,1.21-3.5,1.85-.99.54-1.81.12-1.81-1-.01-3,.04-6-.03-9-.02-.81.42-1.03.98-1.28,3.92-1.72,8.04-2.66,12.26-3.19,3.64-.45,7.27-.42,10.86.43,7.04,1.67,11.39,6.4,12.48,13.53.31,2.02.45,4.05.45,6.1,0,8.04,0,16.09,0,24.13,0,1.69-.27,1.96-1.93,1.96-3.6,0-7.21,0-10.81,0-1.29,0-1.63-.34-1.64-1.62-.01-.96-.02-1.92-.03-2.88,0-.03-.04-.06-.12-.17Zm.26-13.97c0-.28-.04-.57,0-.84.21-1.17-.37-1.33-1.35-1.16-1.14.2-2.3.29-3.44.47-2.04.32-4.15.36-6.01,1.43-1.77,1.02-2.4,2.62-2.24,4.55.15,1.84,1.42,3.27,3.2,3.78,3.08.88,6.41-.3,8.26-2.93,1.12-1.59,1.56-3.39,1.58-5.31Z"/>
  <path class="cls-2" d="m307.98,141.3c-4.29,0-8.57.03-12.86-.02-1.05-.01-1.15.3-.94,1.21.84,3.6,3.67,5.95,7.89,6.46,5.23.63,10.21-.13,14.84-2.74.92-.52,1.76-.04,1.77,1.02.02,2.92-.02,5.84.02,8.76.01.73-.4.95-.92,1.21-2.93,1.47-6.05,2.29-9.29,2.69-4.63.58-9.27.69-13.85-.43-8.5-2.08-14.26-8.61-15.34-17.36-.66-5.35-.56-10.67,1.66-15.67,3.75-8.46,10.36-12.96,19.61-13.49,3.47-.2,6.89.2,10.12,1.54,6.68,2.78,10.09,8.07,11.38,14.95.66,3.49.44,7.02.46,10.53,0,1.01-.62,1.35-1.57,1.35-4.33-.02-8.65,0-12.98,0Zm-6.79-9.9c2.12,0,4.24,0,6.35,0,.45,0,.89.07.85-.64-.25-4.47-2.52-8.15-8.24-7-3.49.7-5,3.54-6,6.68-.29.89.04.98.8.97,2.08-.04,4.16-.01,6.23-.01Z"/>
  <path class="cls-2" d="m343.79,141.3c.71,4.57,3.4,7.08,8.02,7.64,5.23.64,10.21-.12,14.84-2.73.93-.52,1.78-.07,1.79.98.02,2.92-.02,5.84.03,8.76.01.71-.37.96-.9,1.23-2.93,1.47-6.05,2.29-9.28,2.69-4.63.58-9.27.69-13.85-.42-8.5-2.07-14.27-8.58-15.37-17.34-.68-5.39-.57-10.75,1.69-15.79,3.76-8.4,10.36-12.86,19.55-13.4,3.68-.22,7.29.23,10.68,1.76,6.39,2.89,9.64,8.13,10.87,14.82.63,3.45.43,6.94.44,10.42,0,1.1-.69,1.38-1.67,1.37-8.49-.01-16.98,0-25.47,0-.44,0-.87,0-1.37,0Zm7.15-9.9c2.12,0,4.24,0,6.35,0,.43,0,.83.1.88-.61.33-4.65-3.58-8.13-8.12-7.08-3.59.83-5.16,3.59-6.15,6.84-.23.74-.02.88.68.87,2.12-.03,4.24-.01,6.35-.01Z"/>
  <path class="cls-3" d="m177.1,57.78c0,8.92-.02,17.85.02,26.77,0,.99-.23,1.3-1.24,1.24-3-.15-6.01.2-9-.22-7.63-1.09-13.55-7.82-13.57-15.53-.04-13.04,0-26.09-.04-39.13,0-.96.32-1.09,1.16-1.09,7.17.03,14.34.04,21.51,0,.97,0,1.18.28,1.17,1.2-.03,8.92-.02,17.85-.02,26.77Z"/>
  <path class="cls-2" d="m84.45,152c0-1.64-.01-3.28,0-4.92.01-1.24.78-1.66,1.87-1.03,3.83,2.24,7.91,3.66,12.4,3.59,1.52-.02,3.04-.21,4.46-.8,1.01-.42,1.82-1.06,1.93-2.24.11-1.16-.59-1.85-1.48-2.41-1.26-.8-2.66-1.29-4.07-1.72-2.87-.88-5.64-1.98-8.35-3.31-8.96-4.39-8.89-17.59-.95-22.64,3.62-2.31,7.62-3.29,11.81-3.56,4.71-.3,9.34.29,13.9,1.55.74.21,1.04.46,1.03,1.27-.05,3-.01,6-.02,9,0,1.32-.71,1.75-1.89,1.18-3.86-1.87-7.89-2.81-12.2-2.25-.84.11-1.65.35-2.38.79-1.61.96-1.78,2.63-.38,3.88,1.03.93,2.31,1.42,3.6,1.86,2.95,1,5.94,1.91,8.71,3.38,3.59,1.91,6.29,4.56,6.96,8.76,1.21,7.57-2.4,13.5-9.83,16.17-4.76,1.71-9.7,1.96-14.69,1.58-3.24-.25-6.4-.91-9.49-1.96-.76-.26-.97-.63-.95-1.37.05-1.6.01-3.2.01-4.8Z"/>
  <path class="cls-2" d="m131.37,137.5c0-4.19-.03-7.59.02-10.99.01-.83-.22-1.12-1.07-1.08-1.52.07-3.04,0-4.57.02-1.05.01-1.54-.46-1.53-1.52.01-2.84.02-5.68,0-8.53,0-1.12.53-1.58,1.62-1.55,1.32.03,2.64.02,3.97,0,1.78-.02,1.56.22,1.57-1.62.01-2.2.05-4.4-.02-6.6-.02-.81.29-1.1,1.01-1.3,4.05-1.12,8.08-2.27,12.12-3.41,1.34-.38,1.87,0,1.87,1.39,0,3.48.04,6.96-.02,10.45-.01.91.25,1.15,1.14,1.13,2.36-.06,4.73-.03,7.09-.02,1.35,0,1.64.28,1.64,1.6,0,2.8-.02,5.6.01,8.4.01,1.11-.44,1.6-1.57,1.58-2.4-.03-4.81.02-7.21-.03-.79-.01-1.12.14-1.11,1.03.04,5.4.02,10.81.03,16.21,0,.2,0,.4.02.6.35,4.5,3.19,6.27,7.4,4.62.26-.1.51-.24.77-.34.9-.38,1.65.1,1.66,1.08.02,3.04-.01,6.08.02,9.13,0,.64-.26.9-.8,1.13-1.75.75-3.6,1.08-5.48,1.24-3.25.27-6.49.32-9.64-.68-5.24-1.67-7.86-5.51-8.65-10.75-.6-3.98-.13-7.99-.29-11.2Z"/>
  <path class="cls-2" d="m380.77,121.08c0-8.72,0-17.45,0-26.17,0-1.69.25-1.95,1.93-1.95,3.76,0,7.53,0,11.29,0,1.48,0,1.73.25,1.73,1.76,0,15.93,0,31.85,0,47.78,0,.72.03,1.44.12,2.15.33,2.66,1.9,3.97,4.58,3.78,1.03-.07,2.05-.31,3.08-.47,1.01-.16,1.55.24,1.56,1.21.02,2.92,0,5.84,0,8.76,0,.42-.01.75-.56.88-4.42,1.06-8.87,1.94-13.42,1.23-5.59-.87-9.37-4.93-10.1-10.54-.16-1.23-.24-2.46-.23-3.71.01-8.24,0-16.49,0-24.73Z"/>
  <path class="cls-2" d="m15.83,129.55c0,4.36,0,8.72,0,13.08,0,.4-.01.8.02,1.2.25,3.63,2.05,5.06,5.65,4.49.75-.12,1.5-.24,2.25-.38.92-.17,1.41.28,1.42,1.13.04,3,.01,6,.02,9,0,.34-.03.63-.45.73-4.81,1.13-9.66,2.16-14.59,1.06-4.98-1.11-8.41-5.23-9.05-10.45-.15-1.23-.22-2.47-.22-3.71,0-9.96,0-19.92,0-29.89,0-1.69.25-1.94,1.94-1.94,3.76,0,7.53,0,11.29,0,1.48,0,1.73.25,1.73,1.76,0,4.64,0,9.28,0,13.92Z"/>
  <path class="cls-3" d="m165.07,23.61c-3.56,0-7.13-.02-10.69.02-.78,0-1.15-.11-1.1-1.02.19-3.47-.35-6.96.48-10.4C155.47,5.17,161.89.08,169.15.03c2.36-.02,4.73.02,7.09-.02.68-.01.88.19.87.87-.02,7.28-.03,14.56,0,21.85,0,.81-.33.89-.99.89-3.68-.02-7.37-.01-11.05-.01Z"/>
  <path class="cls-1" d="m8.73,108.38c-4.47,0-7.95-2.56-8.6-6.21-.85-4.8,2.32-8.81,7.27-9.17,1.36-.1,2.72-.06,4.05.32,3.5.99,5.73,3.91,5.67,7.42-.07,3.62-2.46,6.54-6.05,7.38-.82.19-1.65.3-2.34.26Z"/>
</svg>