<?xml version="1.0" encoding="UTF-8"?>
<svg id="Layer_1" data-name="Layer 1" xmlns="http://www.w3.org/2000/svg" viewBox="0 0 252.19 211.56">
  <defs>
    <style>
      .cls-1 {
        fill: #d4a332;
      }

      .cls-2 {
        fill: #2a2b2b;
      }
    </style>
  </defs>
  <g>
    <path class="cls-2" d="m21,204.5c.37,0,.61.18.61.55v5.42c0,.3-.24.55-.55.55H.61c-.36,0-.61-.24-.61-.55v-41.08c0-.36.24-.61.55-.61h6.15c.36,0,.61.24.61.61v35.12h13.69Z"/>
    <path class="cls-2" d="m35.06,204.14h17.47c.3-.06.55.18.55.55v5.78c0,.3-.18.55-.55.55h-24.16c-.36,0-.61-.24-.61-.61l.06-41.02c0-.36.24-.61.55-.61h23.55c.36,0,.61.24.61.61v5.72c0,.36-.24.61-.61.61h-16.86v10.35h13.94c.36,0,.61.24.61.61v5.6c0,.36-.24.61-.55.61h-14v11.26Z"/>
    <path class="cls-2" d="m79.54,194.4c-.36-.06-.61-.24-.61-.61v-4.87c0-.36.24-.61.61-.61h17.77c.55,0,.79.36.73.73-.18,13.94-6.39,22.58-19.6,22.52-12.54,0-20.87-8.64-20.87-21.67s8.7-21.67,21.73-21.67c6.63,0,11.38,2.25,15.15,5.72.24.24.18.55,0,.79l-3.77,4.63c-.12.12-.24.18-.37.18-.18,0-.3-.06-.43-.18-1.83-1.64-5.72-3.89-10.59-3.89-8.64,0-14.42,5.78-14.42,14.42s5.48,14.42,13.57,14.42c6.82,0,10.96-3.41,12.23-9.92h-11.14Z"/>
    <path class="cls-2" d="m111.98,199.82l-4.26,10.77c-.06.3-.3.43-.61.43h-6.15c-.43,0-.61-.24-.43-.67l15.95-40.96c.18-.36.49-.55.85-.55h6.33c.37,0,.67.18.79.55l16.01,40.96c.12.43-.06.67-.49.67h-6.15c-.3,0-.55-.18-.61-.43l-4.2-10.77h-17.04Zm2.37-6.27h12.23l-6.09-15.64-6.15,15.64Z"/>
    <path class="cls-2" d="m166.15,204.5c.37,0,.61.18.61.55v5.42c0,.3-.24.55-.55.55h-20.45c-.36,0-.61-.24-.61-.55v-41.08c0-.36.24-.61.55-.61h6.15c.36,0,.61.24.61.61v35.12h13.69Z"/>
    <path class="cls-2" d="m180.21,210.47c0,.3-.18.55-.55.55h-6.15c-.37,0-.55-.24-.55-.55l-.06-41.08c0-.36.24-.61.61-.61h6.15c.3,0,.55.24.55.61v41.08Z"/>
    <path class="cls-2" d="m196.46,210.34c0,.43-.18.67-.61.67h-6.09c-.36,0-.61-.24-.61-.61l.06-41.02c0-.36.24-.61.61-.61h23.49c.37,0,.61.24.61.61v5.72c0,.36-.24.61-.61.61h-16.86v10.35h13.94c.36,0,.61.24.61.61v5.6c0,.36-.24.61-.55.61h-14v17.47Z"/>
    <path class="cls-2" d="m230.24,194.22l-14.48-24.65c-.24-.43-.12-.73.43-.73h6.57c.3,0,.61.18.79.49l10.41,18.44,10.35-18.44c.18-.3.49-.49.79-.49h6.57c.49,0,.67.24.43.73l-14.55,24.59v16.31c0,.3-.24.55-.61.55h-6.09c-.37,0-.61-.24-.61-.55v-16.25Z"/>
  </g>
  <g>
    <g>
      <path class="cls-1" d="m138.71,30.08c-2.67,0-5.37-.73-7.78-2.26-.71-.45-.92-1.38-.47-2.09.45-.71,1.38-.92,2.09-.47,5.38,3.41,12.53,1.81,15.94-3.57,3.41-5.38,1.81-12.53-3.57-15.94-5.38-3.41-12.53-1.81-15.94,3.57-.45.71-1.38.92-2.09.47-.71-.45-.92-1.38-.47-2.09,4.31-6.79,13.33-8.81,20.12-4.5,6.79,4.31,8.81,13.33,4.5,20.12-2.77,4.37-7.51,6.77-12.34,6.77Z"/>
      <path class="cls-1" d="m138.71,30.85c-2.9,0-5.74-.82-8.2-2.38-1.06-.67-1.38-2.09-.71-3.15.33-.52.83-.87,1.43-1.01.6-.13,1.21-.03,1.72.3,2.43,1.54,5.31,2.04,8.13,1.41,2.81-.63,5.21-2.31,6.75-4.74,3.18-5.02,1.69-11.69-3.33-14.88-2.43-1.54-5.31-2.04-8.13-1.41-2.81.63-5.21,2.31-6.75,4.74-.68,1.06-2.09,1.38-3.16.71-1.06-.68-1.38-2.09-.71-3.15,2.19-3.46,5.61-5.86,9.61-6.75,4.01-.9,8.12-.18,11.57,2.01,7.15,4.53,9.28,14.04,4.74,21.19-2.83,4.46-7.68,7.13-12.99,7.13Zm-6.97-5.05c-.05,0-.11,0-.16.02-.19.04-.36.16-.46.33-.22.35-.12.8.23,1.02,2.21,1.4,4.76,2.14,7.37,2.14,4.77,0,9.14-2.4,11.68-6.41,4.08-6.43,2.16-14.98-4.27-19.05-3.11-1.97-6.8-2.61-10.41-1.81-3.6.81-6.67,2.96-8.64,6.07-.22.35-.12.8.23,1.02.34.22.8.12,1.02-.23,1.76-2.78,4.5-4.7,7.72-5.42,3.22-.72,6.52-.15,9.29,1.61,5.74,3.64,7.45,11.27,3.81,17.01-1.76,2.78-4.5,4.7-7.72,5.42-3.21.72-6.51.15-9.29-1.61-.12-.08-.26-.12-.4-.12Z"/>
    </g>
    <g>
      <path class="cls-1" d="m113.27,111.25c-.84,0-1.54-.66-1.57-1.5-1.65-36.24-1.75-60.67,10.63-94.32,1.61-4.38,3.42-7.67,5.53-10.05,3.06-3.46,6.73-4.98,10.91-4.51.87.1,1.49.88,1.39,1.74-.1.87-.88,1.49-1.74,1.39-3.14-.35-5.83.78-8.2,3.47-1.84,2.08-3.46,5.04-4.93,9.05-5.77,15.68-9.09,30.24-10.44,45.81-1.31,15.04-.77,30.31,0,47.27.04.87-.63,1.61-1.5,1.65-.02,0-.05,0-.07,0Z"/>
      <path class="cls-1" d="m113.27,112.02c-1.26,0-2.29-.99-2.34-2.24-1.65-36.33-1.76-60.83,10.68-94.62,1.65-4.47,3.5-7.84,5.68-10.3,3.24-3.66,7.14-5.27,11.58-4.77.62.07,1.18.38,1.57.87.39.49.57,1.1.5,1.73-.07.62-.38,1.18-.87,1.58-.49.39-1.1.57-1.73.5-2.87-.32-5.34.73-7.54,3.21-1.78,2.01-3.35,4.89-4.79,8.81-5.75,15.61-9.05,30.11-10.4,45.61-1.3,14.99-.77,30.23,0,47.17.06,1.29-.95,2.4-2.24,2.45h-.11ZM137.34,1.55c-3.36,0-6.35,1.45-8.9,4.33-2.04,2.31-3.81,5.52-5.38,9.81-12.34,33.52-12.23,57.88-10.59,94.02.02.43.37.77.8.77v.77l.05-.77c.43-.02.78-.4.76-.84-.77-17-1.31-32.29,0-47.38,1.36-15.64,4.69-30.27,10.49-46.01,1.51-4.1,3.17-7.14,5.08-9.3,2.56-2.89,5.45-4.11,8.87-3.73.21.02.42-.04.59-.17.17-.13.27-.33.3-.54.02-.21-.04-.42-.17-.59-.13-.17-.33-.27-.54-.3-.46-.05-.91-.08-1.35-.08Z"/>
    </g>
    <g>
      <path class="cls-1" d="m97.19,118.95c-.84,0-1.54-.66-1.57-1.5-.78-17.09-1.31-30.8,0-49.2,1.44-20.03,4.91-37.3,10.63-52.82,1.61-4.38,3.42-7.67,5.53-10.05,3.06-3.46,6.73-4.98,10.91-4.51.87.1,1.49.88,1.39,1.74-.1.87-.88,1.49-1.74,1.39-3.14-.35-5.83.78-8.2,3.47-1.84,2.08-3.46,5.04-4.93,9.05-5.61,15.24-9.02,32.23-10.44,51.96-1.31,18.24-.78,31.84,0,48.83.04.87-.63,1.61-1.5,1.65-.02,0-.05,0-.07,0Z"/>
      <path class="cls-1" d="m97.19,119.72c-1.26,0-2.29-.99-2.35-2.24-.83-18.19-1.27-31.45,0-49.29,1.44-20.1,4.93-37.44,10.67-53.03,1.65-4.47,3.5-7.84,5.68-10.3,3.24-3.66,7.13-5.27,11.58-4.77.62.07,1.18.38,1.57.87s.57,1.1.5,1.73c-.07.62-.38,1.18-.87,1.58-.49.39-1.1.57-1.73.5-2.87-.32-5.34.73-7.54,3.21-1.78,2.01-3.35,4.89-4.79,8.81-5.58,15.16-8.98,32.09-10.39,51.75-1.26,17.6-.82,30.72,0,48.74.06,1.29-.95,2.4-2.24,2.45h-.11ZM121.25,1.55c-3.36,0-6.35,1.45-8.9,4.33-2.04,2.31-3.81,5.52-5.38,9.81-5.69,15.45-9.15,32.66-10.58,52.61-1.28,17.76-.83,30.98,0,49.11.02.43.37.77.8.77v.77l.05-.77c.21-.01.4-.1.55-.26.14-.16.22-.36.21-.58-.82-18.07-1.27-31.24,0-48.92,1.42-19.8,4.85-36.87,10.49-52.17,1.51-4.1,3.17-7.14,5.08-9.3,2.56-2.89,5.45-4.11,8.87-3.73.21.02.42-.04.59-.17.17-.13.27-.33.3-.54.02-.21-.04-.42-.17-.59-.13-.17-.33-.27-.54-.3-.46-.05-.91-.08-1.35-.08Z"/>
    </g>
    <g>
      <circle class="cls-1" cx="132.49" cy="24.78" r="3.21"/>
      <path class="cls-1" d="m132.5,28.77c-.39,0-.78-.06-1.16-.17-2.1-.64-3.29-2.87-2.65-4.97.31-1.02,1-1.86,1.93-2.36.94-.5,2.02-.61,3.03-.3,2.1.64,3.29,2.87,2.65,4.97h0c-.31,1.02-1,1.86-1.93,2.36-.59.31-1.23.47-1.87.47Zm0-6.42c-.4,0-.79.1-1.15.29-.57.31-1,.82-1.18,1.44-.39,1.29.34,2.65,1.63,3.04.62.19,1.28.12,1.86-.18.57-.31,1-.82,1.18-1.44.39-1.29-.34-2.65-1.63-3.04-.23-.07-.47-.11-.71-.11Z"/>
    </g>
    <g>
      <path class="cls-1" d="m96.66,144.13c-.15,0-.3-.02-.45-.07-.67-.2-1.12-.81-1.12-1.51v-13.16c0-.87.71-1.58,1.58-1.58s1.58.71,1.58,1.58v8.26c3.16-4.17,8.74-10.91,15.97-17.13,6.68-5.75,13.37-9.83,19.88-12.12,7.49-2.64,14.76-2.92,21.63-.85v-33.17c-6.48-2.19-13.39-2.02-20.55.5-6.14,2.16-12.48,6.03-18.86,11.5-10.96,9.42-18.27,20.44-18.34,20.55-.48.73-1.46.93-2.18.45-.73-.48-.93-1.46-.45-2.18.3-.46,7.59-11.45,18.87-21.16,6.68-5.75,13.37-9.82,19.88-12.12,8.27-2.91,16.27-2.95,23.77-.12.61.23,1.02.82,1.02,1.47v36.48c0,.52-.26,1-.68,1.3-.43.29-.97.36-1.45.18-6.78-2.56-14.03-2.51-21.57.14-6.14,2.16-12.48,6.03-18.85,11.51-10.96,9.42-18.26,20.44-18.34,20.55-.3.45-.8.71-1.32.71Z"/>
      <path class="cls-1" d="m96.66,144.9h0c-.23,0-.45-.03-.67-.1-1-.3-1.68-1.21-1.68-2.25v-13.16c0-1.3,1.05-2.35,2.35-2.35s2.35,1.05,2.35,2.35v6c3.43-4.35,8.46-10.09,14.69-15.46,6.75-5.81,13.52-9.94,20.13-12.27,7.28-2.56,14.38-2.95,21.12-1.14v-31.58c-6.16-1.95-12.72-1.72-19.52.66-6.05,2.12-12.31,5.95-18.61,11.36-10.74,9.22-17.9,19.94-18.2,20.39-.34.52-.87.88-1.49,1.01-.62.13-1.24,0-1.77-.34-.52-.34-.88-.87-1.01-1.49s0-1.24.34-1.77c.31-.47,7.63-11.53,19.01-21.32,6.75-5.81,13.53-9.93,20.13-12.26,8.45-2.97,16.62-3.01,24.3-.11.91.34,1.52,1.23,1.52,2.2v36.48c0,.77-.38,1.49-1.02,1.93-.63.44-1.44.54-2.17.27-6.6-2.49-13.68-2.44-21.04.14-6.05,2.13-12.31,5.95-18.61,11.37-10.88,9.35-18.12,20.28-18.2,20.39-.43.66-1.17,1.06-1.96,1.06Zm0-16.31c-.44,0-.8.36-.8.8v13.16c0,.36.23.67.57.77.34.1.71-.04.9-.33.07-.11,7.4-11.2,18.48-20.71,6.45-5.54,12.87-9.46,19.1-11.65,7.71-2.71,15.15-2.76,22.1-.13.25.09.52.06.74-.09.22-.15.35-.4.35-.66v-36.48c0-.33-.2-.63-.51-.75-7.32-2.77-15.14-2.73-23.24.12-6.42,2.26-13.03,6.29-19.64,11.97-11.22,9.65-18.43,20.54-18.73,21-.12.18-.16.39-.12.6.04.21.17.39.35.51s.39.16.6.12c.21-.04.39-.17.51-.35.31-.46,7.59-11.35,18.49-20.71,6.45-5.54,12.88-9.46,19.1-11.64,7.32-2.57,14.41-2.74,21.06-.5l.53.18v34.76s-1-.3-1-.3c-6.71-2.03-13.83-1.74-21.15.84-6.42,2.26-13.03,6.3-19.63,11.98-7.03,6.06-12.51,12.6-15.86,17.02l-1.39,1.83v-10.56c0-.44-.36-.8-.8-.8Z"/>
    </g>
  </g>
</svg>