<?xml version="1.0" encoding="UTF-8"?>
<svg xmlns="http://www.w3.org/2000/svg" xmlns:xlink="http://www.w3.org/1999/xlink" viewBox="0 0 259.12 140.15">
  <defs>
    <style>
      .cls-1 {
        fill: url(#linear-gradient-2);
      }

      .cls-2 {
        mask: url(#mask-2);
      }

      .cls-3 {
        clip-path: url(#clippath-2);
      }

      .cls-4 {
        isolation: isolate;
      }

      .cls-5 {
        mask: url(#mask-3);
      }

      .cls-6 {
        font-family: NowAlt-Bold, 'Now Alt';
        font-size: 30.75px;
        font-weight: 700;
      }

      .cls-6, .cls-7, .cls-8 {
        fill: #f29123;
      }

      .cls-9 {
        clip-path: url(#clippath-1);
      }

      .cls-10 {
        clip-path: url(#clippath-4);
      }

      .cls-11 {
        opacity: .84;
      }

      .cls-11, .cls-8 {
        mix-blend-mode: multiply;
      }

      .cls-12 {
        clip-path: url(#clippath);
      }

      .cls-13 {
        fill: none;
      }

      .cls-14 {
        clip-path: url(#clippath-3);
      }

      .cls-15 {
        fill: #3d3e44;
      }

      .cls-16 {
        mask: url(#mask-1);
      }

      .cls-17 {
        mask: url(#mask);
      }

      .cls-18 {
        fill: url(#linear-gradient-3);
      }

      .cls-19 {
        fill: url(#linear-gradient);
      }

      .cls-20 {
        fill: url(#linear-gradient-4);
      }
    </style>
    <clipPath id="clippath">
      <rect class="cls-13" x="42.12" y="44.48" width="16.68" height="16.68" transform="translate(-.11 .1) rotate(-.11)"/>
    </clipPath>
    <clipPath id="clippath-1">
      <path class="cls-15" d="m46.95,57.19c-.42,1.25-.64,2.59-.64,3.98h-4.17c0-2.16.41-4.23,1.16-6.14,1.46.27,2.74,1.06,3.65,2.15m3.5-10.46c-1.34.78-2.56,1.74-3.63,2.86-.51.53-.99,1.1-1.43,1.69,1.36.45,2.6,1.16,3.64,2.09.43-.55.91-1.05,1.43-1.52,1.06-.96,2.29-1.73,3.63-2.28,1.45-.59,3.04-.92,4.7-.93v-4.17c-3.04,0-5.89.83-8.34,2.25"/>
    </clipPath>
    <linearGradient id="linear-gradient" x1="-1991.74" y1="1454.91" x2="-1991.5" y2="1454.91" gradientTransform="translate(-137940.61 -100751.75) rotate(-180) scale(69.29 -69.29)" gradientUnits="userSpaceOnUse">
      <stop offset="0" stop-color="#121212"/>
      <stop offset=".16" stop-color="#1c1c1c"/>
      <stop offset=".44" stop-color="#373737"/>
      <stop offset=".79" stop-color="#636363"/>
      <stop offset="1" stop-color="gray"/>
    </linearGradient>
    <mask id="mask" x="42.11" y="44.47" width="16.71" height="16.71" maskUnits="userSpaceOnUse">
      <rect class="cls-19" x="42.12" y="44.48" width="16.68" height="16.68" transform="translate(-.11 .1) rotate(-.11)"/>
    </mask>
    <clipPath id="clippath-2">
      <path class="cls-15" d="m50.47,54.91c-1.31,1.74-2.08,3.91-2.07,6.25,0-1.51-.55-2.9-1.44-3.98-.91-1.1-2.19-1.88-3.65-2.15-.38-.07-.77-.11-1.17-.11v-4.17c1.13,0,2.23.18,3.26.52,1.36.45,2.6,1.16,3.64,2.09.53.47,1.01.99,1.44,1.55"/>
    </clipPath>
    <linearGradient id="linear-gradient-2" x1="-2014.32" y1="1479.34" x2="-2014.08" y2="1479.34" gradientTransform="translate(-72430.13 98735.85) rotate(90) scale(48.99 -48.99)" gradientUnits="userSpaceOnUse">
      <stop offset="0" stop-color="#363636"/>
      <stop offset=".22" stop-color="#404040"/>
      <stop offset=".59" stop-color="#5b5b5b"/>
      <stop offset="1" stop-color="gray"/>
    </linearGradient>
    <mask id="mask-1" x="36.92" y="46.58" width="18.76" height="18.76" maskUnits="userSpaceOnUse">
      <rect class="cls-1" x="39.67" y="49.32" width="13.27" height="13.27" transform="translate(-26.02 49.27) rotate(-45.11)"/>
    </mask>
    <clipPath id="clippath-3">
      <path class="cls-15" d="m58.8,50.72v4.17c-.39,0-.79.04-1.16.11-.54-1.35-1.25-2.61-2.1-3.75,1.03-.34,2.12-.53,3.26-.53m-6.9,2.64c-.53.47-1.01.99-1.43,1.56-1.31,1.74-2.08,3.91-2.07,6.25h4.17c0-1.52.53-2.91,1.43-3.99-.47-1.4-1.19-2.69-2.09-3.81"/>
    </clipPath>
    <linearGradient id="linear-gradient-3" x1="-2018.93" y1="1462.1" x2="-2018.69" y2="1462.1" gradientTransform="translate(-63259.81 87476.45) rotate(90) scale(43.3 -43.3)" xlink:href="#linear-gradient"/>
    <mask id="mask-2" x="48.37" y="50.72" width="10.44" height="10.44" maskUnits="userSpaceOnUse">
      <rect class="cls-18" x="48.38" y="50.73" width="10.42" height="10.42" transform="translate(-.11 .11) rotate(-.11)"/>
    </mask>
    <clipPath id="clippath-4">
      <path class="cls-15" d="m58.82,61.14h-4.17c0-1.38-.24-2.72-.66-3.97-.47-1.4-1.19-2.69-2.09-3.81-.44-.54-.92-1.05-1.44-1.51,1.06-.96,2.29-1.73,3.63-2.28.52.53,1,1.09,1.44,1.69.85,1.15,1.56,2.41,2.1,3.75.76,1.9,1.18,3.97,1.18,6.14m-16.71-16.64v4.17c1.67,0,3.26.32,4.71.91,1.07-1.11,2.29-2.07,3.63-2.86-2.46-1.42-5.31-2.23-8.34-2.22"/>
    </clipPath>
    <linearGradient id="linear-gradient-4" x1="-2006.53" y1="1471.62" x2="-2006.29" y2="1471.62" gradientTransform="translate(-139232.28 189951.59) rotate(90) scale(94.65 -94.65)" xlink:href="#linear-gradient-2"/>
    <mask id="mask-3" x="34.9" y="37.26" width="31.13" height="31.13" maskUnits="userSpaceOnUse">
      <rect class="cls-20" x="39.07" y="41.43" width="22.78" height="22.78" transform="translate(-19.69 32.45) rotate(-30.11)"/>
    </mask>
  </defs>
  <g class="cls-4">
    <g id="Layer_1" data-name="Layer 1">
      <g>
        <path class="cls-15" d="m212.46,3.44c-25.77,0-46.67,20.89-46.67,46.67s20.89,46.67,46.67,46.67,46.67-20.89,46.67-46.67S238.23,3.44,212.46,3.44Zm0,73.56c-14.86,0-26.9-12.04-26.9-26.9s12.04-26.9,26.9-26.9,26.9,12.04,26.9,26.9-12.04,26.9-26.9,26.9Z"/>
        <text class="cls-6" transform="translate(149.27 130.08)"><tspan x="0" y="0">V- Lab</tspan></text>
        <g>
          <path class="cls-15" d="m151.07,65.37l-3.29-5.07c6.04-2.2,10.64-5.61,13.81-10.21,3.16-4.6,4.75-10.36,4.75-17.26,0-9.78-3.09-17.26-9.28-22.44-6.18-5.18-15.03-7.77-26.54-7.77h-45.3v94.92h24.31v-31.31h-.08v-22.06h.08v-22.86h16.83c5.27,0,9.11.96,11.51,2.88,2.4,1.92,3.6,4.94,3.6,9.06s-1.2,7.29-3.6,9.2c-2.4,1.92-6.23,2.88-11.51,2.88h-14.64v17.55h12.63l4.61,7.87,15.67,26.79h27.33l-20.88-32.18Zm-65.56,25.64c-.05-.15-.11-.3-.16-.45.12.35.25.68.4,1.01-.09-.19-.17-.38-.24-.56Zm12.17-62.57c-.04-.09-.09-.17-.12-.25.16.31.32.63.47.95-.12-.23-.23-.47-.35-.7Zm5.28,18.51c-.02-.25-.05-.49-.07-.74.03.32.07.63.09.95,0-.07-.01-.15-.02-.22Z"/>
          <path class="cls-7" d="m21,39.7c-.15.43-.29.83-.42,1.25-.09.27-.17.53-.24.78,0,.02-.02.04-.02.06-.09.32-.18.62-.27.93-.08.32-.16.62-.23.93-.03.12-.06.24-.08.36-.07.29-.13.57-.19.87-.08.4-.15.79-.22,1.19-.04.25-.08.51-.11.75,0,.07-.02.13-.03.19-.05.31-.08.61-.12.93C20.74,24.37,38.29,5.12,61.07.87c-3.07-.57-6.23-.87-9.47-.87C23.15,0,0,23.15,0,51.59s23.15,51.59,51.59,51.59c11.06,0,21.31-3.5,29.72-9.45v-28.52c-1.62,3.55-3.87,6.76-6.61,9.49-5.92,5.93-14.09,9.58-23.11,9.58-18.03,0-32.7-14.66-32.7-32.7,0-16.32,12.02-29.89,27.68-32.31-2.44.36-4.91.99-7.41,1.92-8.46,3.17-15.12,9.99-18.17,18.5Z"/>
          <path class="cls-7" d="m79.65,8.32s-.03,0-.04-.02h0s-.03-.03-.05-.04c.02,0,.03.02.04.03-.01-.01-.03-.02-.04-.03-.04-.03-.08-.05-.12-.07-.03-.03-.07-.05-.12-.07-.17-.12-.35-.23-.53-.34-.2-.13-.4-.25-.59-.37-.37-.23-.73-.45-1.11-.65-.17-.1-.34-.2-.52-.29-.23-.14-.47-.26-.7-.39,0,0,0,0,0,0-.07-.03-.13-.07-.2-.11-.15-.08-.3-.15-.45-.23-.06-.03-.12-.06-.18-.09-.22-.12-.44-.23-.66-.34-.02,0-.05-.03-.08-.04-.15-.07-.3-.15-.45-.22-.21-.1-.41-.2-.61-.29-.19-.09-.38-.17-.55-.26-.45-.2-.89-.4-1.35-.58-.12-.05-.24-.1-.37-.15-.23-.09-.46-.19-.68-.28-.12-.04-.23-.08-.34-.13-.02,0-.05,0-.07-.02-.29-.11-.57-.22-.86-.32-.12-.05-.25-.09-.38-.14-.12-.04-.25-.09-.38-.13-.05-.02-.09-.04-.14-.05-.31-.11-.61-.21-.92-.31-.4-.13-.79-.25-1.2-.36-.02,0-.05-.02-.07-.03-.31-.09-.62-.17-.94-.26-.07-.02-.14-.04-.21-.06-.03,0-.06,0-.09-.02-.25-.07-.5-.13-.75-.19-.12-.03-.24-.06-.36-.09-.31-.08-.62-.15-.93-.22-.02,0-.04,0-.06,0-.2-.05-.4-.09-.59-.13-.31-.07-.62-.13-.93-.19h0C38.29,5.12,20.74,24.37,19.08,47.95c.04-.32.07-.62.12-.93,0-.06.02-.12.03-.19.03-.25.07-.51.11-.75.07-.4.14-.79.22-1.19.06-.3.12-.58.19-.87.02-.12.05-.24.08-.36.07-.31.15-.61.23-.93.09-.31.18-.61.27-.93,0-.02,0-.04.02-.06.07-.26.15-.52.24-.78.13-.42.27-.82.42-1.25,3.05-8.51,9.71-15.33,18.17-18.5,2.5-.93,4.97-1.57,7.41-1.92.29-.05.56-.09.85-.12.24-.04.49-.07.73-.09.05,0,.1,0,.15,0,.16-.02.33-.04.49-.05.15,0,.3-.03.45-.03.06,0,.12,0,.18-.02.07,0,.14,0,.21,0,.14,0,.28,0,.42-.02.1,0,.21,0,.31-.01-.1,0-.21,0-.31.01.19,0,.38-.01.57-.02.23,0,.45-.01.68-.01.1,0,.19,0,.29,0,.17,0,.34,0,.51,0,.05,0,.09,0,.14,0,.25,0,.5,0,.75.02h.05c.11,0,.22.01.33.02.18.01.37.02.55.03-.09,0-.18,0-.27-.01.09,0,.18.01.28.02.13,0,.25,0,.38.02.06,0,.12,0,.18.02.39.03.78.07,1.17.13.05,0,.11,0,.16.02.03,0,.05,0,.08,0,.09,0,.17.02.25.03.02,0,.05,0,.07,0-.02,0-.04,0-.07-.01.14.02.27.04.41.06.07,0,.13.02.2.03.14.03.29.05.44.08.05,0,.09,0,.14.02.02,0,.05,0,.07,0,.1,0,.21.03.31.06.03,0,.07,0,.1.02.41.07.8.15,1.19.25.13.03.26.06.39.09.02,0,.04.01.07.02.22.05.44.1.65.17.06.02.12.03.18.05-.01,0-.02,0-.03-.01.02,0,.03.01.05.01.32.09.64.18.96.28.03,0,.06.02.09.03.07.02.15.05.22.07.2.06.4.13.6.2.13.04.25.08.38.13.11.04.21.08.32.12.21.08.43.16.64.24.19.07.38.15.56.23.09.04.18.07.28.11.12.05.25.1.37.15.02.01.05.02.07.03.08.03.15.07.23.1.1.04.19.09.28.13.22.1.43.2.64.3.14.07.28.14.42.21.2.1.4.2.6.31.11.06.21.12.32.17.55.3,1.09.61,1.62.94-.1-.06-.2-.12-.29-.17.1.06.19.11.29.17.35.22.67.43,1.01.65.22.15.44.3.65.46.59.43,1.19.87,1.75,1.35.19.14.36.29.54.44,0,.02.03.03.04.04.19.16.38.32.56.5.05.05.1.1.16.15.08.07.16.14.24.21.11.11.23.22.34.33.13.12.25.24.38.36.13.12.25.25.37.38.4.4.77.8,1.14,1.22.1.1.2.21.29.32.07.07.13.14.19.21.28.33.55.66.81,1,.22.28.43.55.63.83.14.19.27.37.4.55.16.22.31.45.46.66.13.19.26.39.38.57.14.22.27.43.4.63.18.31.37.6.53.91,0,.03.02.05.04.08.17.3.33.59.49.9.15.29.3.56.43.85.04.07.07.14.1.21.05.11.11.22.16.33V9.45c-.13-.1-.26-.19-.4-.28-.42-.29-.83-.57-1.26-.85Z"/>
          <path class="cls-8" d="m79.65,8.32s-.03,0-.04-.02h0s-.03-.03-.05-.04c.02,0,.03.02.04.03-.01-.01-.03-.02-.04-.03-.04-.03-.08-.05-.12-.07-.03-.03-.07-.05-.12-.07-.17-.12-.35-.23-.53-.34-.2-.13-.4-.25-.59-.37-.37-.23-.73-.45-1.11-.65-.17-.1-.34-.2-.52-.29-.23-.14-.47-.26-.7-.39,0,0,0,0,0,0-.07-.03-.13-.07-.2-.11-.15-.08-.3-.15-.45-.23-.06-.03-.12-.06-.18-.09-.22-.12-.44-.23-.66-.34-.02,0-.05-.03-.08-.04-.15-.07-.3-.15-.45-.22-.21-.1-.41-.2-.61-.29-.19-.09-.38-.17-.55-.26-.45-.2-.89-.4-1.35-.58-.12-.05-.24-.1-.37-.15-.23-.09-.46-.19-.68-.28-.12-.04-.23-.08-.34-.13-.02,0-.05,0-.07-.02-.29-.11-.57-.22-.86-.32-.12-.05-.25-.09-.38-.14-.12-.04-.25-.09-.38-.13-.05-.02-.09-.04-.14-.05-.31-.11-.61-.21-.92-.31-.4-.13-.79-.25-1.2-.36-.02,0-.05-.02-.07-.03-.31-.09-.62-.17-.94-.26-.07-.02-.14-.04-.21-.06-.03,0-.06,0-.09-.02-.25-.07-.5-.13-.75-.19-.12-.03-.24-.06-.36-.09-.31-.08-.62-.15-.93-.22-.02,0-.04,0-.06,0-.2-.05-.4-.09-.59-.13-.31-.07-.62-.13-.93-.19h0C38.29,5.12,20.74,24.37,19.08,47.95c.04-.32.07-.62.12-.93,0-.06.02-.12.03-.19.03-.25.07-.51.11-.75.07-.4.14-.79.22-1.19.06-.3.12-.58.19-.87.02-.12.05-.24.08-.36.07-.31.15-.61.23-.93.09-.31.18-.61.27-.93,0-.02,0-.04.02-.06.07-.26.15-.52.24-.78.13-.42.27-.82.42-1.25,3.05-8.51,9.71-15.33,18.17-18.5,2.5-.93,4.97-1.57,7.41-1.92.29-.05.56-.09.85-.12.24-.04.49-.07.73-.09.05,0,.1,0,.15,0,.16-.02.33-.04.49-.05.15,0,.3-.03.45-.03.06,0,.12,0,.18-.02.07,0,.14,0,.21,0,.14,0,.28,0,.42-.02.1,0,.21,0,.31-.01-.1,0-.21,0-.31.01.19,0,.38-.01.57-.02.23,0,.45-.01.68-.01.1,0,.19,0,.29,0,.17,0,.34,0,.51,0,.05,0,.09,0,.14,0,.25,0,.5,0,.75.02h.05c.11,0,.22.01.33.02.18.01.37.02.55.03-.09,0-.18,0-.27-.01.09,0,.18.01.28.02.13,0,.25,0,.38.02.06,0,.12,0,.18.02.39.03.78.07,1.17.13.05,0,.11,0,.16.02.03,0,.05,0,.08,0,.09,0,.17.02.25.03.02,0,.05,0,.07,0-.02,0-.04,0-.07-.01.14.02.27.04.41.06.07,0,.13.02.2.03.14.03.29.05.44.08.05,0,.09,0,.14.02.02,0,.05,0,.07,0,.1,0,.21.03.31.06.03,0,.07,0,.1.02.41.07.8.15,1.19.25.13.03.26.06.39.09.02,0,.04.01.07.02.22.05.44.1.65.17.06.02.12.03.18.05-.01,0-.02,0-.03-.01.02,0,.03.01.05.01.32.09.64.18.96.28.03,0,.06.02.09.03.07.02.15.05.22.07.2.06.4.13.6.2.13.04.25.08.38.13.11.04.21.08.32.12.21.08.43.16.64.24.19.07.38.15.56.23.09.04.18.07.28.11.12.05.25.1.37.15.02.01.05.02.07.03.08.03.15.07.23.1.1.04.19.09.28.13.22.1.43.2.64.3.14.07.28.14.42.21.2.1.4.2.6.31.11.06.21.12.32.17.55.3,1.09.61,1.62.94-.1-.06-.2-.12-.29-.17.1.06.19.11.29.17.35.22.67.43,1.01.65.22.15.44.3.65.46.59.43,1.19.87,1.75,1.35.19.14.36.29.54.44,0,.02.03.03.04.04.19.16.38.32.56.5.05.05.1.1.16.15.08.07.16.14.24.21.11.11.23.22.34.33.13.12.25.24.38.36.13.12.25.25.37.38.4.4.77.8,1.14,1.22.1.1.2.21.29.32.07.07.13.14.19.21.28.33.55.66.81,1,.22.28.43.55.63.83.14.19.27.37.4.55.16.22.31.45.46.66.13.19.26.39.38.57.14.22.27.43.4.63.18.31.37.6.53.91,0,.03.02.05.04.08.17.3.33.59.49.9.15.29.3.56.43.85.04.07.07.14.1.21.05.11.11.22.16.33V9.45c-.13-.1-.26-.19-.4-.28-.42-.29-.83-.57-1.26-.85Z"/>
        </g>
        <g class="cls-11">
          <g class="cls-12">
            <g>
              <path class="cls-15" d="m46.95,57.19c-.42,1.25-.64,2.59-.64,3.98h-4.17c0-2.16.41-4.23,1.16-6.14,1.46.27,2.74,1.06,3.65,2.15m3.5-10.46c-1.34.78-2.56,1.74-3.63,2.86-.51.53-.99,1.1-1.43,1.69,1.36.45,2.6,1.16,3.64,2.09.43-.55.91-1.05,1.43-1.52,1.06-.96,2.29-1.73,3.63-2.28,1.45-.59,3.04-.92,4.7-.93v-4.17c-3.04,0-5.89.83-8.34,2.25"/>
              <g class="cls-9">
                <g class="cls-17">
                  <rect class="cls-15" x="42.12" y="44.48" width="16.68" height="16.68" transform="translate(-.11 .1) rotate(-.11)"/>
                </g>
              </g>
            </g>
            <g>
              <path class="cls-15" d="m50.47,54.91c-1.31,1.74-2.08,3.91-2.07,6.25,0-1.51-.55-2.9-1.44-3.98-.91-1.1-2.19-1.88-3.65-2.15-.38-.07-.77-.11-1.17-.11v-4.17c1.13,0,2.23.18,3.26.52,1.36.45,2.6,1.16,3.64,2.09.53.47,1.01.99,1.44,1.55"/>
              <g class="cls-3">
                <g class="cls-16">
                  <rect class="cls-15" x="39.67" y="49.32" width="13.27" height="13.27" transform="translate(-26.02 49.27) rotate(-45.11)"/>
                </g>
              </g>
            </g>
            <g>
              <path class="cls-15" d="m58.8,50.72v4.17c-.39,0-.79.04-1.16.11-.54-1.35-1.25-2.61-2.1-3.75,1.03-.34,2.12-.53,3.26-.53m-6.9,2.64c-.53.47-1.01.99-1.43,1.56-1.31,1.74-2.08,3.91-2.07,6.25h4.17c0-1.52.53-2.91,1.43-3.99-.47-1.4-1.19-2.69-2.09-3.81"/>
              <g class="cls-14">
                <g class="cls-2">
                  <rect class="cls-15" x="48.38" y="50.73" width="10.42" height="10.42" transform="translate(-.11 .11) rotate(-.11)"/>
                </g>
              </g>
            </g>
            <g>
              <path class="cls-15" d="m58.82,61.14h-4.17c0-1.38-.24-2.72-.66-3.97-.47-1.4-1.19-2.69-2.09-3.81-.44-.54-.92-1.05-1.44-1.51,1.06-.96,2.29-1.73,3.63-2.28.52.53,1,1.09,1.44,1.69.85,1.15,1.56,2.41,2.1,3.75.76,1.9,1.18,3.97,1.18,6.14m-16.71-16.64v4.17c1.67,0,3.26.32,4.71.91,1.07-1.11,2.29-2.07,3.63-2.86-2.46-1.42-5.31-2.23-8.34-2.22"/>
              <g class="cls-10">
                <g class="cls-5">
                  <rect class="cls-15" x="39.07" y="41.43" width="22.78" height="22.78" transform="translate(-19.69 32.45) rotate(-30.11)"/>
                </g>
              </g>
            </g>
          </g>
        </g>
      </g>
    </g>
  </g>
</svg>