<?xml version="1.0" encoding="utf-8"?>
<svg viewBox="53.879 119.971 446.121 272.27" xmlns="http://www.w3.org/2000/svg" xmlns:xlink="http://www.w3.org/1999/xlink">
  <defs>
    <linearGradient id="New_Gradient_Swatch_3" data-name="New Gradient Swatch 3" x1="155.64" y1="39.05" x2="77.54" y2="39.05" gradientUnits="userSpaceOnUse">
      <stop offset="0" stop-color="#e30634"/>
      <stop offset="0.11" stop-color="#d80936"/>
      <stop offset="0.29" stop-color="#bd113f"/>
      <stop offset="0.53" stop-color="#911e4c"/>
      <stop offset="0.81" stop-color="#54305e"/>
      <stop offset="1" stop-color="#293e6b"/>
    </linearGradient>
    <linearGradient id="linear-gradient" x1="77.7" y1="29.13" x2="116.75" y2="68.18" gradientUnits="userSpaceOnUse">
      <stop offset="0" stop-color="#e30634"/>
      <stop offset="1" stop-color="#e30634"/>
    </linearGradient>
    <linearGradient id="New_Gradient_Swatch_3-2" data-name="New Gradient Swatch 3" x1="131.23" y1="29.29" x2="131.23" y2="78.11" xlink:href="#New_Gradient_Swatch_3"/>
    <linearGradient id="linear-gradient-2" x1="90.21" y1="-7.32" x2="143.56" y2="85.08" xlink:href="#linear-gradient"/>
  </defs>
  <g transform="matrix(1.246702, 0, 0, 1.361729, -9.195074, 166.131393)" style="">
    <g>
      <path class="cls-5" d="m100.1,59.46c-1.97,5.86-3.04,12.13-3.04,18.65h-19.53c0-10.15,1.95-19.85,5.49-28.77,6.82,1.29,12.81,4.97,17.07,10.12Zm16.49-48.98c-6.29,3.65-12.02,8.14-17.04,13.34-2.41,2.48-4.66,5.12-6.72,7.92,6.36,2.1,12.14,5.48,17.05,9.84,2.04-2.55,4.28-4.93,6.71-7.1,4.98-4.47,10.74-8.1,17.04-10.65,6.8-2.77,14.23-4.3,22.02-4.3V0c-14.22,0-27.56,3.82-39.05,10.48Z" style="fill: url('#New_Gradient_Swatch_3');"/>
      <path class="cls-6" d="m116.59,48.85c-6.14,8.15-9.76,18.29-9.76,29.25,0-7.08-2.53-13.58-6.72-18.65-4.26-5.15-10.25-8.82-17.07-10.12-1.77-.34-3.61-.52-5.49-.52v-19.53c5.33,0,10.48.86,15.29,2.45,6.36,2.1,12.14,5.48,17.05,9.84,2.48,2.19,4.73,4.63,6.71,7.28Z" style="fill: url('#linear-gradient');"/>
      <path class="cls-4" d="m155.64,29.29v19.53c-1.88,0-3.72.18-5.49.52-2.51-6.31-5.82-12.22-9.8-17.6,4.81-1.6,9.96-2.45,15.29-2.45Zm-32.34,12.29c-2.48,2.19-4.74,4.63-6.71,7.28-6.14,8.15-9.76,18.29-9.76,29.25h19.53c0-7.08,2.52-13.58,6.72-18.65-2.21-6.56-5.54-12.59-9.77-17.88Z" style="fill: url('#New_Gradient_Swatch_3-2');"/>
      <path class="cls-1" d="m155.64,78.11h-19.53c0-6.52-1.08-12.79-3.04-18.65-2.21-6.56-5.54-12.59-9.77-17.88-2.04-2.55-4.28-4.93-6.71-7.1,4.98-4.47,10.74-8.1,17.04-10.65,2.42,2.48,4.66,5.12,6.72,7.92,3.98,5.38,7.29,11.29,9.8,17.6,3.54,8.91,5.49,18.61,5.49,28.77ZM77.54,0v19.53c7.79,0,15.22,1.53,22.02,4.3,5.02-5.2,10.75-9.69,17.04-13.34C105.09,3.82,91.75,0,77.54,0Z" style="fill: url('#linear-gradient-2');"/>
    </g>
    <g>
      <path class="cls-2" d="m169.53,78.11V0h29.21C219.74,0,230.02,8.53,230.02,26.04s-10.39,26.69-31.07,26.69h-9.08v25.38h-20.35Zm29.32-42.12c8.2,0,11.7-2.95,11.7-9.85s-3.39-9.52-11.81-9.52h-8.86v19.36h8.97Z" style="fill: rgb(41, 62, 107);"/>
      <path class="cls-2" d="m257.81,78.11V17.83h-22.53V0h66.07v17.83h-22.53v60.28h-21Z" style="fill: rgb(41, 62, 107);"/>
      <path class="cls-2" d="m332.54,46.03c-16.98-3.23-24.26-10.1-24.26-22.7C308.27,8.33,319,0,338.16,0s29.58,8.02,31.14,22.7l-19.37,1.98c-1.35-6.25-4.79-8.85-11.87-8.85-6.35,0-10,2.19-10,6.35,0,3.44,2.5,5.42,8.33,6.56l10.1,1.98c16.56,3.23,24.16,10.41,24.16,23.02,0,15.73-11.25,24.37-31.35,24.37s-31.35-8.85-32.49-26.35h19.89c.83,7.08,5.1,10.31,13.33,10.31,6.98,0,10.62-2.5,10.62-7.19,0-3.85-2.71-6.04-8.23-6.98l-9.89-1.87Z" style="fill: rgb(41, 62, 107);"/>
    </g>
  </g>
  <text class="cls-3" style="white-space: pre; fill: rgb(41, 62, 107); font-family: Poppins-Bold, Poppins; font-size: 55.81px; font-weight: 700; line-height: 89.296px; perspective-origin: 149.891px 0px;" x="109.235" y="314.87" transform="matrix(1.246702, 0, 0, 1.361729, -52.810593, -84.550858)"><tspan x="109.235" y="314.87" style="font-size: 55.8px; word-spacing: 0px;">C A P I T A L</tspan></text>
</svg>