<?xml version="1.0" encoding="UTF-8"?>
<svg id="Layer_1" data-name="Layer 1" xmlns="http://www.w3.org/2000/svg" xmlns:xlink="http://www.w3.org/1999/xlink" viewBox="0 0 232.97 90.46">
  <defs>
    <style>
      .cls-1 {
        fill: url(#linear-gradient-2);
      }

      .cls-2 {
        fill: #293e6b;
      }

      .cls-3 {
        fill: url(#New_Gradient_Swatch_3-2);
      }

      .cls-4 {
        fill: url(#New_Gradient_Swatch_3);
      }

      .cls-5 {
        fill: url(#linear-gradient);
      }
    </style>
    <linearGradient id="New_Gradient_Swatch_3" data-name="New Gradient Swatch 3" x1="62.35" y1="30.99" x2=".36" y2="30.99" gradientUnits="userSpaceOnUse">
      <stop offset="0" stop-color="#e30634"/>
      <stop offset=".11" stop-color="#d80936"/>
      <stop offset=".29" stop-color="#bd113f"/>
      <stop offset=".53" stop-color="#911e4c"/>
      <stop offset=".81" stop-color="#54305e"/>
      <stop offset="1" stop-color="#293e6b"/>
    </linearGradient>
    <linearGradient id="linear-gradient" x1=".5" y1="23.11" x2="31.49" y2="54.1" gradientUnits="userSpaceOnUse">
      <stop offset="0" stop-color="#e30634"/>
      <stop offset="1" stop-color="#e30634"/>
    </linearGradient>
    <linearGradient id="New_Gradient_Swatch_3-2" data-name="New Gradient Swatch 3" x1="42.98" y1="23.24" x2="42.98" y2="61.98" xlink:href="#New_Gradient_Swatch_3"/>
    <linearGradient id="linear-gradient-2" x1="10.42" y1="-5.81" x2="52.76" y2="67.52" xlink:href="#linear-gradient"/>
  </defs>
  <g>
    <g>
      <path class="cls-4" d="m18.27,47.19c-1.56,4.65-2.41,9.63-2.41,14.8H.36c0-8.06,1.55-15.76,4.36-22.83,5.41,1.03,10.17,3.94,13.55,8.03ZM31.36,8.32c-4.99,2.9-9.54,6.46-13.52,10.59-1.92,1.97-3.7,4.07-5.34,6.28,5.05,1.67,9.64,4.35,13.53,7.81,1.62-2.02,3.4-3.91,5.33-5.64,3.95-3.54,8.52-6.43,13.52-8.45,5.39-2.2,11.29-3.41,17.47-3.41V0c-11.28,0-21.87,3.03-30.99,8.32Z"/>
      <path class="cls-5" d="m31.36,38.77c-4.87,6.47-7.75,14.52-7.75,23.21,0-5.62-2.01-10.78-5.34-14.8-3.38-4.09-8.14-7-13.55-8.03-1.41-.27-2.87-.42-4.36-.42v-15.5c4.23,0,8.32.68,12.13,1.95,5.05,1.67,9.64,4.35,13.53,7.81,1.96,1.73,3.76,3.67,5.33,5.77Z"/>
      <path class="cls-3" d="m62.35,23.24v15.5c-1.49,0-2.96.15-4.36.42-2-5.01-4.62-9.69-7.78-13.97,3.82-1.27,7.9-1.95,12.14-1.95Zm-25.66,9.75c-1.97,1.73-3.76,3.67-5.33,5.77-4.87,6.47-7.75,14.52-7.75,23.21h15.5c0-5.62,2-10.78,5.34-14.8-1.75-5.2-4.4-9.99-7.76-14.19Z"/>
      <path class="cls-1" d="m62.35,61.98h-15.5c0-5.17-.85-10.15-2.41-14.8-1.75-5.2-4.4-9.99-7.76-14.19-1.62-2.02-3.4-3.91-5.33-5.64,3.95-3.54,8.52-6.43,13.52-8.45,1.92,1.97,3.7,4.07,5.34,6.28,3.16,4.27,5.78,8.96,7.78,13.97,2.81,7.07,4.36,14.77,4.36,22.83ZM.36,0v15.5c6.18,0,12.08,1.21,17.47,3.41,3.98-4.13,8.53-7.69,13.52-10.59C22.23,3.03,11.65,0,.36,0Z"/>
    </g>
    <g>
      <path class="cls-2" d="m73.37,61.98V0h23.18C113.21,0,121.37,6.77,121.37,20.66s-8.25,21.18-24.65,21.18h-7.21v20.14h-16.15Zm23.26-33.42c6.51,0,9.29-2.34,9.29-7.81s-2.69-7.55-9.38-7.55h-7.03v15.37h7.12Z"/>
      <path class="cls-2" d="m143.42,61.98V14.15h-17.88V0h52.43v14.15h-17.88v47.83h-16.67Z"/>
      <path class="cls-2" d="m202.72,36.53c-13.47-2.56-19.26-8.02-19.26-18.02C183.47,6.61,191.98,0,207.19,0s23.47,6.36,24.71,18.02l-15.37,1.57c-1.07-4.96-3.8-7.02-9.42-7.02-5.04,0-7.93,1.74-7.93,5.04,0,2.73,1.98,4.3,6.61,5.21l8.02,1.57c13.14,2.56,19.17,8.26,19.17,18.26,0,12.48-8.93,19.34-24.88,19.34s-24.88-7.02-25.78-20.91h15.78c.66,5.62,4.05,8.18,10.58,8.18,5.54,0,8.43-1.98,8.43-5.7,0-3.06-2.15-4.79-6.53-5.54l-7.85-1.49Z"/>
    </g>
  </g>
  <g>
    <path class="cls-2" d="m16.32,69.57v4.04h-5.59v16.65h-5.14v-16.65H0v-4.04h16.32Z"/>
    <path class="cls-2" d="m24.04,73.6v4.18h6.88v3.89h-6.88v4.54h7.78v4.04h-12.92v-20.68h12.92v4.04h-7.78Z"/>
    <path class="cls-2" d="m35.64,74.41c.9-1.6,2.16-2.85,3.77-3.74,1.61-.89,3.44-1.34,5.48-1.34,2.5,0,4.65.65,6.43,1.94,1.78,1.3,2.97,3.06,3.58,5.3h-5.65c-.42-.86-1.02-1.52-1.79-1.97-.77-.45-1.65-.68-2.63-.68-1.58,0-2.87.54-3.85,1.62-.98,1.08-1.47,2.52-1.47,4.33s.49,3.25,1.47,4.33c.98,1.08,2.26,1.62,3.85,1.62.98,0,1.86-.23,2.63-.68.77-.45,1.37-1.11,1.79-1.97h5.65c-.6,2.24-1.79,4-3.58,5.29-1.78,1.29-3.93,1.93-6.43,1.93-2.04,0-3.87-.45-5.48-1.34-1.61-.89-2.87-2.14-3.77-3.73-.9-1.59-1.35-3.41-1.35-5.45s.45-3.86,1.35-5.47Z"/>
    <path class="cls-2" d="m76.33,69.57v20.68h-5.14v-8.51h-7.99v8.51h-5.14v-20.68h5.14v8.1h7.99v-8.1h5.14Z"/>
    <path class="cls-2" d="m98.9,90.25h-5.14l-8.59-12.76v12.76h-5.14v-20.68h5.14l8.59,12.82v-12.82h5.14v20.68Z"/>
    <path class="cls-2" d="m107.15,89.1c-1.65-.9-2.96-2.17-3.94-3.79-.97-1.62-1.46-3.44-1.46-5.47s.49-3.84,1.46-5.45c.97-1.61,2.28-2.87,3.94-3.77,1.65-.9,3.47-1.36,5.45-1.36s3.8.45,5.45,1.36c1.65.9,2.95,2.16,3.91,3.77.95,1.61,1.43,3.43,1.43,5.45s-.48,3.85-1.44,5.47c-.96,1.62-2.26,2.88-3.91,3.79-1.64.9-3.46,1.36-5.44,1.36s-3.8-.45-5.45-1.36Zm9.5-4.89c1.01-1.1,1.52-2.55,1.52-4.36s-.51-3.28-1.52-4.38c-1.01-1.09-2.36-1.63-4.04-1.63s-3.06.54-4.07,1.62-1.52,2.54-1.52,4.39.51,3.29,1.52,4.38,2.37,1.63,4.07,1.63,3.03-.55,4.04-1.65Z"/>
    <path class="cls-2" d="m131.38,86.36h6.73v3.89h-11.87v-20.68h5.14v16.79Z"/>
    <path class="cls-2" d="m145.1,89.1c-1.65-.9-2.96-2.17-3.94-3.79-.97-1.62-1.46-3.44-1.46-5.47s.49-3.84,1.46-5.45c.97-1.61,2.28-2.87,3.94-3.77,1.65-.9,3.47-1.36,5.45-1.36s3.8.45,5.45,1.36c1.65.9,2.95,2.16,3.91,3.77.95,1.61,1.43,3.43,1.43,5.45s-.48,3.85-1.44,5.47c-.96,1.62-2.26,2.88-3.91,3.79-1.64.9-3.46,1.36-5.44,1.36s-3.8-.45-5.45-1.36Zm9.5-4.89c1.01-1.1,1.52-2.55,1.52-4.36s-.51-3.28-1.52-4.38c-1.01-1.09-2.36-1.63-4.04-1.63s-3.06.54-4.07,1.62-1.52,2.54-1.52,4.39.51,3.29,1.52,4.38,2.37,1.63,4.07,1.63,3.03-.55,4.04-1.65Z"/>
    <path class="cls-2" d="m178.2,76.11c-.38-.69-.93-1.21-1.64-1.58-.71-.36-1.55-.54-2.51-.54-1.66,0-3,.54-4,1.61-1,1.07-1.5,2.5-1.5,4.29,0,1.91.53,3.39,1.58,4.46,1.05,1.07,2.5,1.61,4.34,1.61,1.26,0,2.33-.31,3.2-.94.87-.63,1.51-1.53,1.91-2.71h-6.52v-3.71h11.18v4.68c-.38,1.26-1.03,2.43-1.94,3.51-.91,1.08-2.07,1.95-3.47,2.62-1.4.67-2.99,1-4.75,1-2.08,0-3.94-.45-5.57-1.34-1.63-.89-2.9-2.14-3.82-3.73-.91-1.59-1.37-3.41-1.37-5.45s.46-3.86,1.37-5.47c.91-1.6,2.18-2.85,3.8-3.74,1.62-.89,3.48-1.34,5.56-1.34,2.52,0,4.65.6,6.39,1.8,1.73,1.2,2.88,2.86,3.44,4.98h-5.68Z"/>
    <path class="cls-2" d="m192.24,69.57v20.68h-5.14v-20.68h5.14Z"/>
    <path class="cls-2" d="m201.1,73.6v4.18h6.88v3.89h-6.88v4.54h7.78v4.04h-12.92v-20.68h12.92v4.04h-7.78Z"/>
    <path class="cls-2" d="m215.71,89.72c-1.22-.49-2.2-1.22-2.93-2.18-.73-.96-1.12-2.12-1.16-3.48h5.47c.08.77.35,1.35.81,1.75s1.06.6,1.8.6,1.36-.17,1.8-.52c.44-.34.66-.82.66-1.43,0-.51-.18-.93-.53-1.27-.35-.33-.78-.61-1.29-.83-.51-.22-1.24-.46-2.18-.74-1.36-.41-2.47-.83-3.34-1.24-.86-.41-1.6-1.02-2.22-1.83-.62-.81-.93-1.86-.93-3.15,0-1.92.71-3.43,2.13-4.52,1.42-1.09,3.28-1.64,5.56-1.64s4.2.55,5.62,1.64c1.42,1.09,2.18,2.61,2.28,4.55h-5.56c-.04-.67-.29-1.19-.75-1.58s-1.05-.57-1.77-.57c-.62,0-1.12.16-1.5.49-.38.32-.57.79-.57,1.4,0,.67.32,1.19.96,1.56.64.37,1.64.78,3,1.21,1.36.45,2.47.88,3.32,1.3s1.59,1.01,2.21,1.8.93,1.8.93,3.03-.31,2.25-.92,3.21c-.61.96-1.5,1.73-2.66,2.3-1.16.57-2.53.85-4.12.85s-2.92-.25-4.15-.74Z"/>
  </g>
</svg>